<svg width="19" height="32" viewBox="0 0 19 32" fill="none" xmlns="http://www.w3.org/2000/svg">
<path d="M17.8429 2.59067C18.4209 1.99719 18.4146 1.04121 17.8288 0.455424C17.243 -0.130363 16.2996 -0.124127 15.7216 0.469353L17.8429 2.59067ZM2.82842 15.8578L1.76776 14.7971L0.721223 15.8717L1.78187 16.9323L2.82842 15.8578ZM15.9239 31.0746C16.5097 31.6604 17.4531 31.6541 18.0311 31.0607C18.6091 30.4672 18.6028 29.5112 18.017 28.9254L15.9239 31.0746ZM15.7216 0.469353L1.76776 14.7971L3.88908 16.9184L17.8429 2.59067L15.7216 0.469353ZM1.78187 16.9323L15.9239 31.0746L18.017 28.9254L3.87497 14.7832L1.78187 16.9323Z" fill="#5F9452"/>
</svg>
