<svg width="30" height="52" viewBox="0 0 30 52" fill="none" xmlns="http://www.w3.org/2000/svg">
<path d="M28.0941 4.76779C29.0574 3.77865 29.0469 2.18535 28.0706 1.20904C27.0942 0.232729 25.5219 0.243122 24.5585 1.23226L28.0941 4.76779ZM4.00016 25.9244L2.23239 24.1567L0.488162 25.9476L2.2559 27.7154L4.00016 25.9244ZM24.8832 50.343C25.8595 51.3193 27.4318 51.3089 28.3952 50.3198C29.3585 49.3307 29.348 47.7374 28.3717 46.761L24.8832 50.343ZM24.5585 1.23226L2.23239 24.1567L5.76793 27.6922L28.0941 4.76779L24.5585 1.23226ZM2.2559 27.7154L24.8832 50.343L28.3717 46.761L5.74441 24.1335L2.2559 27.7154Z" fill="#121212"/>
</svg>
