<svg width="15" height="9" viewBox="0 0 15 9" fill="none" xmlns="http://www.w3.org/2000/svg">
<path d="M2.71171 0.916922C2.31861 0.528987 1.68127 0.528987 1.28818 0.916921C0.895078 1.30486 0.895078 1.93382 1.28818 2.32176L2.71171 0.916922ZM7.69402 7.23864L6.98226 7.94106L7.69402 8.64347L8.40578 7.94106L7.69402 7.23864ZM14.0999 2.32176C14.493 1.93383 14.493 1.30486 14.1 0.916927C13.7069 0.528989 13.0695 0.528985 12.6764 0.916917L14.0999 2.32176ZM1.28818 2.32176L6.98226 7.94106L8.40579 6.53622L2.71171 0.916922L1.28818 2.32176ZM8.40578 7.94106L14.0999 2.32176L12.6764 0.916917L6.98226 6.53622L8.40578 7.94106Z" fill="#121212"/>
</svg>
