<svg width="15" height="11" viewBox="0 0 15 11" fill="none" xmlns="http://www.w3.org/2000/svg">
<path d="M1.53033 4.82467C1.23744 4.53178 0.762563 4.53178 0.46967 4.82467C0.176777 5.11757 0.176777 5.59244 0.46967 5.88533L1.53033 4.82467ZM5.56937 9.92437L5.03904 10.4547L5.56937 10.985L6.0997 10.4547L5.56937 9.92437ZM14.4547 2.09963C14.7476 1.80674 14.7476 1.33186 14.4547 1.03897C14.1618 0.746079 13.6869 0.746081 13.394 1.03898L14.4547 2.09963ZM0.46967 5.88533L5.03904 10.4547L6.0997 9.39404L1.53033 4.82467L0.46967 5.88533ZM6.0997 10.4547L14.4547 2.09963L13.394 1.03898L5.03903 9.39404L6.0997 10.4547Z" fill="#5F9452"/>
</svg>
