<svg width="487" height="684" viewBox="0 0 487 684" fill="none" xmlns="http://www.w3.org/2000/svg">
<g clip-path="url(#clip0_11_304)">
<path d="M302.772 46.9022C310.307 33.6783 325.898 27.3139 333.468 24.8388C335.204 32.7237 337.531 49.5894 329.995 62.8487C322.46 76.108 306.869 82.437 299.299 84.9121C297.632 77.0273 295.306 60.1261 302.772 46.9022Z" fill="#D8BD49"/>
<path d="M346.42 144.915C353.99 147.39 369.685 153.754 377.116 166.978C384.547 180.202 382.36 197.103 380.623 205.023C373.054 202.548 357.358 196.149 349.927 182.925C342.496 169.701 344.684 152.835 346.42 144.915Z" fill="#D8BD49"/>
<path d="M302.702 166.872C310.272 153.648 325.863 147.284 333.399 144.809C335.17 152.694 337.496 169.559 329.926 182.819C322.356 196.078 306.765 202.407 299.23 204.882C297.598 196.997 295.271 180.096 302.702 166.872Z" fill="#D8BD49"/>
<path d="M335.968 0.0529625C337.322 -0.0176703 338.678 -0.0176702 340.031 0.0529629L344.094 0.0529633L340.17 191.693L340.17 199.013L340.17 191.446L335.968 0.0529625Z" fill="#D8BD49"/>
<path d="M302.702 106.905C310.272 93.681 325.863 87.2812 333.399 84.8062C335.17 92.7264 337.496 109.557 329.926 122.851C322.356 136.146 306.765 142.44 299.23 144.915C297.598 136.995 295.271 120.129 302.702 106.905Z" fill="#D8BD49"/>
<path d="M346.42 84.9475C353.99 87.4226 369.685 93.787 377.255 107.011C384.825 120.235 382.36 137.136 380.728 145.021C373.192 142.546 357.462 136.181 350.031 122.957C342.6 109.733 344.684 92.7263 346.42 84.9475Z" fill="#D8BD49"/>
<path d="M346.663 24.8388C354.233 27.3139 369.928 33.6784 377.359 46.9023C384.79 60.1262 382.603 77.0273 380.867 84.9475C373.297 82.4724 357.601 76.0726 350.066 62.8487C342.531 49.6248 344.927 32.759 346.663 24.8388Z" fill="#D8BD49"/>
<path d="M322.599 230.411C322.599 213.651 333.642 198.588 339.961 191.517C346.246 198.588 357.323 213.722 357.323 230.411C357.323 247.1 346.177 262.233 339.961 269.304C333.642 262.268 322.599 247.276 322.599 230.411Z" fill="#D8BD49"/>
<path d="M302.772 330.381C310.307 317.157 325.898 310.792 333.468 308.317C335.204 316.202 337.531 333.068 329.995 346.327C322.46 359.586 306.869 365.915 299.299 368.39C297.632 360.506 295.306 343.604 302.772 330.381Z" fill="#D8BD49"/>
<path d="M346.42 428.393C353.99 430.868 369.685 437.233 377.116 450.457C384.547 463.68 382.36 480.582 380.623 488.502C373.054 486.027 357.358 479.627 349.927 466.403C342.496 453.179 344.684 436.313 346.42 428.393Z" fill="#D8BD49"/>
<path d="M302.702 450.35C310.272 437.127 325.863 430.762 333.399 428.287C335.17 436.172 337.496 453.038 329.926 466.297C322.356 479.556 306.765 485.885 299.23 488.36C297.598 480.476 295.271 463.574 302.702 450.35Z" fill="#D8BD49"/>
<path d="M335.968 283.531C337.322 283.461 338.678 283.461 340.031 283.531L344.094 283.531L340.17 475.172L340.17 482.491L340.17 474.924L335.968 283.531Z" fill="#D8BD49"/>
<path d="M302.702 390.383C310.272 377.159 325.863 370.76 333.399 368.284C335.17 376.205 337.496 393.035 329.926 406.33C322.356 419.624 306.765 425.918 299.23 428.393C297.598 420.473 295.271 403.607 302.702 390.383Z" fill="#D8BD49"/>
<path d="M346.42 368.426C353.99 370.901 369.685 377.265 377.255 390.489C384.825 403.713 382.36 420.614 380.728 428.499C373.192 426.024 357.462 419.66 350.031 406.436C342.6 393.212 344.684 376.205 346.42 368.426Z" fill="#D8BD49"/>
<path d="M346.663 308.317C354.233 310.792 369.928 317.157 377.359 330.381C384.79 343.604 382.603 360.506 380.867 368.426C373.297 365.951 357.601 359.551 350.066 346.327C342.531 333.103 344.927 316.237 346.663 308.317Z" fill="#D8BD49"/>
<path d="M322.599 513.889C322.599 497.129 333.642 482.067 339.961 474.995C346.246 482.067 357.323 497.2 357.323 513.889C357.323 530.578 346.177 545.711 339.961 552.783C333.642 545.746 322.599 530.755 322.599 513.889Z" fill="#D8BD49"/>
<path d="M302.772 613.859C310.307 600.635 325.898 594.27 333.468 591.795C335.204 599.68 337.531 616.546 329.995 629.805C322.46 643.065 306.869 649.394 299.299 651.869C297.632 643.984 295.306 627.083 302.772 613.859Z" fill="#D8BD49"/>
<path d="M335.968 567.01C337.322 566.939 338.678 566.939 340.031 567.01L344.094 567.01L340.17 758.65L340.17 765.969L340.17 758.403L335.968 567.01Z" fill="#D8BD49"/>
<path d="M302.702 673.862C310.272 660.638 325.863 654.238 333.399 651.763C335.17 659.683 337.496 676.513 329.926 689.808C322.356 703.103 306.765 709.396 299.23 711.871C297.598 703.951 295.271 687.085 302.702 673.862Z" fill="#D8BD49"/>
<path d="M346.42 651.904C353.99 654.379 369.685 660.744 377.255 673.967C384.825 687.191 382.36 704.092 380.728 711.977C373.192 709.502 357.462 703.138 350.031 689.914C342.6 676.69 344.684 659.683 346.42 651.904Z" fill="#D8BD49"/>
<path d="M346.663 591.795C354.233 594.271 369.928 600.635 377.359 613.859C384.79 627.083 382.603 643.984 380.867 651.904C373.297 649.429 357.601 643.029 350.066 629.805C342.531 616.581 344.927 599.716 346.663 591.795Z" fill="#D8BD49"/>
<path d="M104.403 46.9022C111.938 33.6783 127.529 27.3139 135.099 24.8388C136.835 32.7237 139.161 49.5894 131.626 62.8487C124.091 76.108 108.5 82.437 100.93 84.9121C99.2634 77.0273 96.9369 60.1261 104.403 46.9022Z" fill="#D8BD49"/>
<path d="M148.051 144.915C155.621 147.39 171.316 153.754 178.747 166.978C186.178 180.202 183.991 197.103 182.254 205.023C174.684 202.548 158.989 196.149 151.558 182.925C144.127 169.701 146.315 152.835 148.051 144.915Z" fill="#D8BD49"/>
<path d="M104.333 166.872C111.903 153.648 127.494 147.284 135.03 144.809C136.801 152.694 139.127 169.559 131.557 182.819C123.987 196.078 108.396 202.407 100.861 204.882C99.229 196.997 96.9025 180.096 104.333 166.872Z" fill="#D8BD49"/>
<path d="M137.599 0.0529625C138.953 -0.0176703 140.309 -0.0176702 141.662 0.0529629L145.725 0.0529633L141.801 191.693L141.801 199.013L141.801 191.446L137.599 0.0529625Z" fill="#D8BD49"/>
<path d="M104.333 106.905C111.903 93.681 127.494 87.2812 135.03 84.8062C136.801 92.7264 139.127 109.557 131.557 122.851C123.987 136.146 108.396 142.44 100.861 144.915C99.229 136.995 96.9025 120.129 104.333 106.905Z" fill="#D8BD49"/>
<path d="M148.051 84.9475C155.621 87.4226 171.316 93.787 178.886 107.011C186.456 120.235 183.991 137.136 182.359 145.021C174.823 142.546 159.093 136.181 151.662 122.957C144.231 109.733 146.315 92.7263 148.051 84.9475Z" fill="#D8BD49"/>
<path d="M148.294 24.8388C155.864 27.3139 171.559 33.6784 178.99 46.9023C186.421 60.1262 184.234 77.0273 182.498 84.9475C174.928 82.4724 159.232 76.0726 151.697 62.8487C144.162 49.6248 146.558 32.759 148.294 24.8388Z" fill="#D8BD49"/>
<path d="M124.23 230.411C124.23 213.651 135.273 198.588 141.592 191.517C147.877 198.588 158.954 213.722 158.954 230.411C158.954 247.1 147.808 262.233 141.592 269.304C135.273 262.268 124.23 247.276 124.23 230.411Z" fill="#D8BD49"/>
<path d="M104.403 330.381C111.938 317.157 127.529 310.792 135.099 308.317C136.835 316.202 139.161 333.068 131.626 346.327C124.091 359.586 108.5 365.915 100.93 368.39C99.2634 360.506 96.9369 343.604 104.403 330.381Z" fill="#D8BD49"/>
<path d="M148.051 428.393C155.621 430.868 171.316 437.233 178.747 450.456C186.178 463.68 183.991 480.582 182.254 488.502C174.684 486.027 158.989 479.627 151.558 466.403C144.127 453.179 146.315 436.313 148.051 428.393Z" fill="#D8BD49"/>
<path d="M104.333 450.35C111.903 437.127 127.494 430.762 135.03 428.287C136.801 436.172 139.127 453.038 131.557 466.297C123.987 479.556 108.396 485.885 100.861 488.36C99.229 480.476 96.9025 463.574 104.333 450.35Z" fill="#D8BD49"/>
<path d="M137.599 283.531C138.953 283.461 140.309 283.461 141.662 283.531L145.725 283.531L141.801 475.172L141.801 482.491L141.801 474.924L137.599 283.531Z" fill="#D8BD49"/>
<path d="M104.333 390.383C111.903 377.159 127.494 370.759 135.03 368.284C136.801 376.205 139.127 393.035 131.557 406.33C123.987 419.624 108.396 425.918 100.861 428.393C99.229 420.473 96.9025 403.607 104.333 390.383Z" fill="#D8BD49"/>
<path d="M148.051 368.426C155.621 370.901 171.316 377.265 178.886 390.489C186.456 403.713 183.991 420.614 182.359 428.499C174.823 426.024 159.093 419.66 151.662 406.436C144.231 393.212 146.315 376.205 148.051 368.426Z" fill="#D8BD49"/>
<path d="M148.294 308.317C155.864 310.792 171.559 317.157 178.99 330.381C186.421 343.604 184.234 360.506 182.498 368.426C174.928 365.951 159.232 359.551 151.697 346.327C144.162 333.103 146.558 316.237 148.294 308.317Z" fill="#D8BD49"/>
<path d="M124.23 513.889C124.23 497.129 135.273 482.067 141.592 474.995C147.877 482.067 158.954 497.2 158.954 513.889C158.954 530.578 147.808 545.711 141.592 552.783C135.273 545.746 124.23 530.755 124.23 513.889Z" fill="#D8BD49"/>
<path d="M104.403 613.859C111.938 600.635 127.529 594.27 135.099 591.795C136.835 599.68 139.161 616.546 131.626 629.805C124.091 643.065 108.5 649.394 100.93 651.869C99.2634 643.984 96.9369 627.083 104.403 613.859Z" fill="#D8BD49"/>
<path d="M137.599 567.01C138.953 566.939 140.309 566.939 141.662 567.01L145.725 567.01L141.801 758.65L141.801 765.969L141.801 758.403L137.599 567.01Z" fill="#D8BD49"/>
<path d="M104.333 673.862C111.903 660.638 127.494 654.238 135.03 651.763C136.801 659.683 139.127 676.513 131.557 689.808C123.987 703.103 108.396 709.396 100.861 711.871C99.229 703.951 96.9025 687.085 104.333 673.862Z" fill="#D8BD49"/>
<path d="M148.051 651.904C155.621 654.379 171.316 660.744 178.886 673.967C186.456 687.191 183.991 704.092 182.359 711.977C174.823 709.502 159.093 703.138 151.662 689.914C144.231 676.69 146.315 659.683 148.051 651.904Z" fill="#D8BD49"/>
<path d="M148.294 591.795C155.864 594.271 171.559 600.635 178.99 613.859C186.421 627.083 184.234 643.984 182.498 651.904C174.928 649.429 159.232 643.029 151.697 629.805C144.162 616.581 146.558 599.716 148.294 591.795Z" fill="#D8BD49"/>
<path d="M476.535 321.619C469 334.843 453.409 341.208 445.839 343.683C444.103 335.798 441.777 318.932 449.312 305.673C456.847 292.414 472.438 286.085 480.008 283.61C481.675 291.494 484.001 308.396 476.535 321.619Z" fill="white"/>
<path d="M432.887 223.607C425.317 221.132 409.622 214.767 402.191 201.543C394.76 188.32 396.947 171.418 398.684 163.498C406.253 165.973 421.949 172.373 429.38 185.597C436.811 198.821 434.623 215.687 432.887 223.607Z" fill="white"/>
<path d="M476.605 201.65C469.035 214.873 453.444 221.238 445.908 223.713C444.137 215.828 441.811 198.962 449.381 185.703C456.951 172.444 472.542 166.115 480.077 163.64C481.709 171.524 484.036 188.426 476.605 201.65Z" fill="white"/>
<path d="M443.339 368.469C441.985 368.539 440.629 368.539 439.276 368.469H435.213L439.137 176.828V169.509V177.076L443.339 368.469Z" fill="white"/>
<path d="M476.605 261.617C469.035 274.841 453.444 281.24 445.908 283.716C444.137 275.795 441.811 258.965 449.381 245.67C456.951 232.376 472.542 226.082 480.077 223.607C481.709 231.527 484.036 248.393 476.605 261.617Z" fill="white"/>
<path d="M432.887 283.574C425.317 281.099 409.622 274.735 402.052 261.511C394.482 248.287 396.947 231.386 398.579 223.501C406.115 225.976 421.845 232.34 429.276 245.564C436.707 258.788 434.623 275.795 432.887 283.574Z" fill="white"/>
<path d="M432.644 343.683C425.074 341.208 409.379 334.843 401.948 321.619C394.517 308.396 396.704 291.494 398.44 283.574C406.01 286.049 421.706 292.449 429.241 305.673C436.776 318.897 434.38 335.763 432.644 343.683Z" fill="white"/>
<path d="M456.708 138.111C456.708 154.871 445.665 169.933 439.346 177.005C433.061 169.933 421.984 154.8 421.984 138.111C421.984 121.422 433.13 106.289 439.346 99.2174C445.665 106.254 456.708 121.245 456.708 138.111Z" fill="white"/>
<path d="M476.535 38.1412C469 51.3651 453.409 57.7296 445.839 60.2046C444.103 52.3198 441.777 35.454 449.312 22.1947C456.847 8.93547 472.438 2.60639 480.008 0.131332C481.675 8.01617 484.001 24.9173 476.535 38.1412Z" fill="white"/>
<path d="M443.339 84.9905C441.985 85.0611 440.629 85.0611 439.276 84.9905H435.213L439.137 -106.65V-113.969V-106.403L443.339 84.9905Z" fill="white"/>
<path d="M476.605 -21.8615C469.035 -8.6376 453.444 -2.2378 445.908 0.237267C444.137 -7.68293 441.811 -24.5133 449.381 -37.808C456.951 -51.1026 472.542 -57.3963 480.077 -59.8714C481.709 -51.9512 484.036 -35.0854 476.605 -21.8615Z" fill="white"/>
<path d="M432.887 0.0959358C425.317 -2.37913 409.622 -8.74356 402.052 -21.9675C394.482 -35.1914 396.947 -52.0925 398.579 -59.9773C406.115 -57.5023 421.845 -51.1378 429.276 -37.9139C436.707 -24.69 434.623 -7.68283 432.887 0.0959358Z" fill="white"/>
<path d="M432.644 60.2046C425.074 57.7295 409.379 51.3651 401.948 38.1412C394.517 24.9173 396.704 8.01615 398.44 0.0959473C406.01 2.57101 421.706 8.97081 429.241 22.1947C436.776 35.4186 434.38 52.2844 432.644 60.2046Z" fill="white"/>
<path d="M476.535 605.098C469 618.322 453.409 624.686 445.839 627.161C444.103 619.276 441.777 602.411 449.312 589.151C456.847 575.892 472.438 569.563 480.008 567.088C481.675 574.973 484.001 591.874 476.535 605.098Z" fill="white"/>
<path d="M432.887 507.085C425.317 504.61 409.622 498.246 402.191 485.022C394.76 471.798 396.947 454.897 398.684 446.977C406.253 449.452 421.949 455.851 429.38 469.075C436.811 482.299 434.623 499.165 432.887 507.085Z" fill="white"/>
<path d="M476.605 485.128C469.035 498.352 453.444 504.716 445.908 507.191C444.137 499.306 441.811 482.441 449.381 469.181C456.951 455.922 472.542 449.593 480.077 447.118C481.709 455.003 484.036 471.904 476.605 485.128Z" fill="white"/>
<path d="M443.339 651.947C441.985 652.018 440.629 652.018 439.276 651.947L435.213 651.947L439.137 460.307L439.137 452.987L439.137 460.554L443.339 651.947Z" fill="white"/>
<path d="M476.605 545.095C469.035 558.319 453.444 564.719 445.908 567.194C444.137 559.274 441.811 542.443 449.381 529.149C456.951 515.854 472.542 509.56 480.077 507.085C481.709 515.005 484.036 531.871 476.605 545.095Z" fill="white"/>
<path d="M432.887 567.053C425.317 564.577 409.622 558.213 402.052 544.989C394.482 531.765 396.947 514.864 398.579 506.979C406.115 509.454 421.845 515.819 429.276 529.043C436.707 542.267 434.623 559.274 432.887 567.053Z" fill="white"/>
<path d="M432.644 627.161C425.074 624.686 409.379 618.322 401.948 605.098C394.517 591.874 396.704 574.973 398.44 567.053C406.01 569.528 421.706 575.927 429.241 589.151C436.776 602.375 434.38 619.241 432.644 627.161Z" fill="white"/>
<path d="M456.708 421.59C456.708 438.349 445.665 453.412 439.346 460.483C433.061 453.412 421.984 438.279 421.984 421.59C421.984 404.901 433.13 389.767 439.346 382.696C445.665 389.732 456.708 404.724 456.708 421.59Z" fill="white"/>
<path d="M278.166 321.619C270.631 334.843 255.04 341.208 247.47 343.683C245.734 335.798 243.407 318.932 250.943 305.673C258.478 292.414 274.069 286.085 281.639 283.61C283.306 291.494 285.632 308.396 278.166 321.619Z" fill="white"/>
<path d="M234.518 223.607C226.948 221.132 211.253 214.767 203.822 201.543C196.391 188.32 198.578 171.418 200.315 163.498C207.884 165.973 223.58 172.373 231.011 185.597C238.442 198.821 236.254 215.687 234.518 223.607Z" fill="white"/>
<path d="M278.236 201.65C270.666 214.873 255.075 221.238 247.539 223.713C245.768 215.828 243.442 198.962 251.012 185.703C258.582 172.444 274.173 166.115 281.708 163.64C283.34 171.524 285.667 188.426 278.236 201.65Z" fill="white"/>
<path d="M244.97 368.469C243.616 368.539 242.26 368.539 240.907 368.469H236.844L240.768 176.828V169.509V177.076L244.97 368.469Z" fill="white"/>
<path d="M278.236 261.617C270.666 274.841 255.075 281.24 247.539 283.716C245.768 275.795 243.442 258.965 251.012 245.67C258.582 232.376 274.173 226.082 281.708 223.607C283.34 231.527 285.667 248.393 278.236 261.617Z" fill="white"/>
<path d="M234.518 283.574C226.948 281.099 211.253 274.735 203.683 261.511C196.113 248.287 198.578 231.386 200.21 223.501C207.746 225.976 223.476 232.34 230.907 245.564C238.338 258.788 236.254 275.795 234.518 283.574Z" fill="white"/>
<path d="M234.275 343.683C226.705 341.208 211.01 334.843 203.579 321.619C196.148 308.396 198.335 291.494 200.071 283.574C207.641 286.049 223.337 292.449 230.872 305.673C238.407 318.897 236.011 335.763 234.275 343.683Z" fill="white"/>
<path d="M258.339 138.111C258.339 154.871 247.296 169.933 240.977 177.005C234.692 169.933 223.615 154.8 223.615 138.111C223.615 121.422 234.761 106.289 240.977 99.2174C247.296 106.254 258.339 121.245 258.339 138.111Z" fill="white"/>
<path d="M278.166 38.1412C270.631 51.3651 255.04 57.7296 247.47 60.2046C245.734 52.3198 243.407 35.454 250.943 22.1947C258.478 8.93547 274.069 2.60639 281.639 0.131332C283.306 8.01617 285.632 24.9173 278.166 38.1412Z" fill="white"/>
<path d="M244.97 84.9905C243.616 85.0611 242.26 85.0611 240.907 84.9905H236.844L240.768 -106.65V-113.969V-106.403L244.97 84.9905Z" fill="white"/>
<path d="M278.236 -21.8615C270.666 -8.6376 255.075 -2.2378 247.539 0.237267C245.768 -7.68293 243.442 -24.5133 251.012 -37.808C258.582 -51.1026 274.173 -57.3963 281.708 -59.8714C283.34 -51.9512 285.667 -35.0854 278.236 -21.8615Z" fill="white"/>
<path d="M234.518 0.0959358C226.948 -2.37913 211.253 -8.74356 203.683 -21.9675C196.113 -35.1914 198.578 -52.0925 200.21 -59.9773C207.746 -57.5023 223.476 -51.1378 230.907 -37.9139C238.338 -24.69 236.254 -7.68283 234.518 0.0959358Z" fill="white"/>
<path d="M234.275 60.2046C226.705 57.7295 211.01 51.3651 203.579 38.1412C196.148 24.9173 198.335 8.01615 200.071 0.0959473C207.641 2.57101 223.337 8.97081 230.872 22.1947C238.407 35.4186 236.011 52.2844 234.275 60.2046Z" fill="white"/>
<path d="M278.166 605.098C270.631 618.322 255.04 624.686 247.47 627.161C245.734 619.276 243.407 602.411 250.943 589.151C258.478 575.892 274.069 569.563 281.639 567.088C283.306 574.973 285.632 591.874 278.166 605.098Z" fill="white"/>
<path d="M234.518 507.085C226.948 504.61 211.253 498.246 203.822 485.022C196.391 471.798 198.578 454.897 200.315 446.977C207.884 449.452 223.58 455.851 231.011 469.075C238.442 482.299 236.254 499.165 234.518 507.085Z" fill="white"/>
<path d="M278.236 485.128C270.666 498.352 255.075 504.716 247.539 507.191C245.768 499.306 243.442 482.441 251.012 469.181C258.582 455.922 274.173 449.593 281.708 447.118C283.34 455.003 285.666 471.904 278.236 485.128Z" fill="white"/>
<path d="M244.97 651.947C243.616 652.018 242.26 652.018 240.907 651.947L236.844 651.947L240.768 460.307L240.768 452.987L240.768 460.554L244.97 651.947Z" fill="white"/>
<path d="M278.236 545.095C270.666 558.319 255.075 564.719 247.539 567.194C245.768 559.274 243.442 542.443 251.012 529.149C258.582 515.854 274.173 509.56 281.708 507.085C283.34 515.005 285.666 531.871 278.236 545.095Z" fill="white"/>
<path d="M234.518 567.053C226.948 564.577 211.253 558.213 203.683 544.989C196.113 531.765 198.578 514.864 200.21 506.979C207.746 509.454 223.476 515.819 230.907 529.043C238.338 542.267 236.254 559.274 234.518 567.053Z" fill="white"/>
<path d="M234.275 627.161C226.705 624.686 211.01 618.322 203.579 605.098C196.148 591.874 198.335 574.973 200.071 567.053C207.641 569.528 223.337 575.927 230.872 589.151C238.407 602.375 236.011 619.241 234.275 627.161Z" fill="white"/>
<path d="M258.339 421.59C258.339 438.349 247.296 453.412 240.977 460.483C234.691 453.412 223.614 438.279 223.614 421.59C223.614 404.901 234.761 389.767 240.977 382.696C247.296 389.732 258.339 404.724 258.339 421.59Z" fill="white"/>
<path d="M79.7973 321.619C72.2622 334.843 56.671 341.208 49.1011 343.683C47.3649 335.798 45.0384 318.932 52.5736 305.673C60.1087 292.414 75.6999 286.085 83.2697 283.61C84.9365 291.494 87.263 308.396 79.7973 321.619Z" fill="white"/>
<path d="M36.1488 223.607C28.579 221.132 12.8836 214.767 5.45267 201.543C-1.9783 188.32 0.209322 171.418 1.94553 163.498C9.5154 165.973 25.2107 172.373 32.6417 185.597C40.0727 198.821 37.8851 215.687 36.1488 223.607Z" fill="white"/>
<path d="M79.8665 201.65C72.2966 214.873 56.7054 221.238 49.1703 223.713C47.3994 215.828 45.0728 198.962 52.6427 185.703C60.2126 172.444 75.8037 166.115 83.3389 163.64C84.9709 171.524 87.2974 188.426 79.8665 201.65Z" fill="white"/>
<path d="M46.6007 368.469C45.2473 368.539 43.8913 368.539 42.5379 368.469H38.4752L42.3991 176.828V169.509V177.076L46.6007 368.469Z" fill="white"/>
<path d="M79.8665 261.617C72.2966 274.841 56.7054 281.24 49.1703 283.716C47.3994 275.795 45.0728 258.965 52.6427 245.67C60.2126 232.376 75.8037 226.082 83.3389 223.607C84.9709 231.527 87.2974 248.393 79.8665 261.617Z" fill="white"/>
<path d="M36.1488 283.574C28.579 281.099 12.8836 274.735 5.31376 261.511C-2.25611 248.287 0.209307 231.386 1.84134 223.501C9.37649 225.976 25.1065 232.34 32.5375 245.564C39.9685 258.788 37.885 275.795 36.1488 283.574Z" fill="white"/>
<path d="M35.9057 343.683C28.3359 341.208 12.6405 334.843 5.20957 321.619C-2.2214 308.396 -0.0337807 291.494 1.70243 283.574C9.2723 286.049 24.9676 292.449 32.5028 305.673C40.0379 318.897 37.6419 335.763 35.9057 343.683Z" fill="white"/>
<path d="M59.9696 138.111C59.9696 154.871 48.9273 169.933 42.6075 177.005C36.3224 169.933 25.2454 154.8 25.2454 138.111C25.2454 121.422 36.3919 106.289 42.6075 99.2174C48.9273 106.254 59.9696 121.245 59.9696 138.111Z" fill="white"/>
<path d="M79.7973 38.1412C72.2622 51.3651 56.671 57.7296 49.1011 60.2046C47.3649 52.3198 45.0384 35.454 52.5736 22.1947C60.1087 8.93547 75.6999 2.60639 83.2697 0.131332C84.9365 8.01617 87.263 24.9173 79.7973 38.1412Z" fill="white"/>
<path d="M46.6007 84.9905C45.2473 85.0611 43.8913 85.0611 42.5379 84.9905H38.4752L42.3991 -106.65V-113.969V-106.403L46.6007 84.9905Z" fill="white"/>
<path d="M79.8665 -21.8615C72.2966 -8.6376 56.7054 -2.2378 49.1703 0.237267C47.3994 -7.68293 45.0728 -24.5133 52.6427 -37.808C60.2126 -51.1026 75.8037 -57.3963 83.3389 -59.8714C84.9709 -51.9512 87.2974 -35.0854 79.8665 -21.8615Z" fill="white"/>
<path d="M36.1488 0.0959358C28.579 -2.37913 12.8836 -8.74356 5.31376 -21.9675C-2.25611 -35.1914 0.209307 -52.0925 1.84134 -59.9773C9.37649 -57.5023 25.1065 -51.1378 32.5375 -37.9139C39.9685 -24.69 37.885 -7.68283 36.1488 0.0959358Z" fill="white"/>
<path d="M35.9057 60.2046C28.3359 57.7295 12.6405 51.3651 5.20957 38.1412C-2.2214 24.9173 -0.0337807 8.01615 1.70243 0.0959473C9.2723 2.57101 24.9676 8.97081 32.5028 22.1947C40.0379 35.4186 37.6419 52.2844 35.9057 60.2046Z" fill="white"/>
<path d="M79.7973 605.098C72.2622 618.322 56.671 624.686 49.1011 627.161C47.3649 619.276 45.0384 602.41 52.5736 589.151C60.1087 575.892 75.6999 569.563 83.2697 567.088C84.9365 574.973 87.263 591.874 79.7973 605.098Z" fill="white"/>
<path d="M36.1488 507.085C28.579 504.61 12.8836 498.246 5.45267 485.022C-1.97831 471.798 0.209321 454.897 1.94553 446.977C9.5154 449.452 25.2107 455.851 32.6417 469.075C40.0727 482.299 37.885 499.165 36.1488 507.085Z" fill="white"/>
<path d="M79.8664 485.128C72.2966 498.352 56.7054 504.716 49.1703 507.191C47.3993 499.306 45.0728 482.441 52.6427 469.181C60.2126 455.922 75.8037 449.593 83.3389 447.118C84.9709 455.003 87.2974 471.904 79.8664 485.128Z" fill="white"/>
<path d="M46.6006 651.947C45.2473 652.018 43.8913 652.018 42.5379 651.947L38.4752 651.947L42.3991 460.307L42.3991 452.987L42.3991 460.554L46.6006 651.947Z" fill="white"/>
<path d="M79.8664 545.095C72.2966 558.319 56.7054 564.719 49.1703 567.194C47.3993 559.274 45.0728 542.443 52.6427 529.149C60.2126 515.854 75.8037 509.56 83.3389 507.085C84.9709 515.005 87.2974 531.871 79.8664 545.095Z" fill="white"/>
<path d="M36.1488 567.052C28.5789 564.577 12.8836 558.213 5.31375 544.989C-2.25611 531.765 0.209306 514.864 1.84134 506.979C9.37649 509.454 25.1065 515.819 32.5375 529.043C39.9685 542.266 37.885 559.274 36.1488 567.052Z" fill="white"/>
<path d="M35.9057 627.161C28.3359 624.686 12.6405 618.322 5.20956 605.098C-2.22141 591.874 -0.033782 574.973 1.70243 567.052C9.2723 569.527 24.9676 575.927 32.5028 589.151C40.0379 602.375 37.6419 619.241 35.9057 627.161Z" fill="white"/>
<path d="M59.9696 421.589C59.9696 438.349 48.9273 453.412 42.6075 460.483C36.3224 453.412 25.2454 438.278 25.2454 421.589C25.2454 404.9 36.3919 389.767 42.6075 382.696C48.9273 389.732 59.9696 404.724 59.9696 421.589Z" fill="white"/>
</g>
<defs>
<clipPath id="clip0_11_304">
<rect width="829" height="684" fill="white"/>
</clipPath>
</defs>
</svg>
