<svg width="60" height="62" viewBox="0 0 60 62" fill="none" xmlns="http://www.w3.org/2000/svg">
<path d="M22.6227 49.5497C22.4029 49.49 22.2032 49.4104 21.9834 49.3506L22.0233 42.1441L22.0433 38.6404L22.0632 36.0922L22.0832 34.002L22.1032 31.8719L22.1232 29.3635L22.1431 25.9593L22.1832 20.1065L22.2631 8.10229L22.3629 20.425L22.4029 26.2181L22.4229 29.5228L22.4428 31.9714L22.4628 33.9821L22.4828 35.9529L22.5027 38.3418L22.5227 41.6066L22.5628 47.1409L22.6227 49.5497Z" fill="#D8BD49"/>
<path d="M38.6649 48.9923C38.4652 49.0719 38.2454 49.1715 38.0256 49.2511L38.1256 36.1122L38.1455 34.002L38.1655 31.8719L38.1855 29.3436L38.2055 25.9792L38.2454 20.1463L38.3253 8.10229L38.4252 19.8278L38.4652 25.7204L38.4852 29.1445L38.5251 33.9621L38.5451 36.1918L38.6649 48.9923Z" fill="#D8BD49"/>
<path d="M58.7305 45.8273C57.1922 47.7185 55.6339 49.6097 54.0356 51.4611C53.0367 51.3019 52.5373 51.2222 51.5384 51.0431C49.9673 50.7314 48.3605 50.6376 46.7637 50.7644C45.2459 50.8744 43.7621 51.266 42.3885 51.919C42.3685 51.9389 42.3486 51.9389 42.3086 51.9588C41.0167 52.5931 39.8468 53.4489 38.8524 54.4871C37.8854 55.4995 37.1493 56.7083 36.6948 58.0306C36.415 58.8468 36.2952 59.2848 35.9955 60.1209C31.9168 60.3631 27.827 60.3565 23.7491 60.101C23.4494 59.245 23.2896 58.8269 23.0098 58.0107C22.5411 56.6801 21.7918 55.4651 20.8123 54.4473C19.8095 53.3961 18.6252 52.533 17.3162 51.8991C17.2962 51.8792 17.2762 51.8792 17.2363 51.8593C15.856 51.2022 14.3661 50.8041 12.8411 50.6847C11.2319 50.5517 9.61195 50.6388 8.02641 50.9435C7.02751 51.1227 6.52807 51.2023 5.52917 51.3616C3.93093 49.5301 2.35267 47.6787 0.794391 45.8273L0.774412 45.8074L0.734456 45.7676V45.7477C0.734456 45.7278 0.734455 45.7477 0.714478 45.7477C1.43368 45.3296 1.77331 45.1106 2.47255 44.6727C3.43466 44.0779 4.26967 43.2999 4.92982 42.3833C5.20722 42.0039 5.41674 41.5796 5.54915 41.1291C5.64778 40.8207 5.68842 40.4967 5.66902 40.1736V40.1338C5.63385 39.4216 5.33488 38.7477 4.82994 38.2425C4.21346 37.6221 3.471 37.1402 2.65235 36.8291C2.07299 36.6101 1.79329 36.4907 1.2339 36.2717C1.25388 36.2518 1.27386 36.212 1.29384 36.1921C2.2328 35.0374 2.65234 34.3606 3.51139 33.3851C4.2306 33.2856 4.5902 33.2458 5.30941 33.1462C6.39866 33.0008 7.47432 32.7678 8.52586 32.4495C8.59066 32.9629 8.72507 33.4651 8.92542 33.9425C8.98535 34.0819 9.14518 34.3009 9.22509 34.4402C9.31362 34.5811 9.41386 34.7142 9.52476 34.8384L9.62465 34.9379C9.66582 35 9.69936 35.0669 9.72454 35.137C9.80445 35.2166 9.82443 35.2564 9.90434 35.3361C9.9443 35.3759 10.0842 35.4953 10.1241 35.5351C10.4771 35.891 10.881 36.1929 11.3228 36.431C11.1391 37.1118 11.0916 37.8221 11.1829 38.5213C11.4226 40.512 12.4615 42.244 13.9799 43.737L14.0198 43.7768C14.2795 44.0356 14.5792 44.2944 14.8589 44.5333C14.8789 44.5532 14.8988 44.5731 14.9188 44.5731C16.8767 46.1856 19.4139 47.4398 21.991 48.3158C22.2107 48.3954 22.4106 48.4551 22.6303 48.5148C25.0077 49.2514 27.3851 49.6695 29.3629 49.7093H30.2219C30.4417 49.7093 30.6815 49.6894 30.9211 49.6894C33.3613 49.5739 35.7681 49.0768 38.0533 48.2162C38.2731 48.1366 38.4728 48.0569 38.6926 47.9574C38.729 47.9353 38.77 47.9217 38.8124 47.9176C41.2098 46.8625 43.5272 45.469 45.3053 43.7967C45.3801 43.7184 45.4602 43.6453 45.5451 43.5778C45.7448 43.3787 45.9646 43.1796 46.1643 42.9606C47.1433 41.9254 48.0423 40.731 48.2221 39.3176V39.2976C48.3126 38.4065 48.2654 37.5069 48.0823 36.63C49.1211 36.1324 50.2599 35.4953 50.9791 34.3407C51.0163 34.2764 51.0497 34.2099 51.0789 34.1416C51.3372 33.728 51.5324 33.2785 51.6583 32.8078C52.2655 32.9379 52.879 33.0376 53.4963 33.1064C54.2754 33.2059 54.655 33.2458 55.4541 33.3453C56.6727 34.3407 56.9724 35.0573 57.9713 36.2717V36.2916C57.4119 36.5305 57.1323 36.63 56.5728 36.8689C55.7594 37.1674 55.0273 37.6514 54.4352 38.2824C53.9515 38.8059 53.6685 39.4826 53.6361 40.1935V40.2333C53.638 40.5292 53.6783 40.8236 53.7559 41.1092C53.6757 41.3534 53.6353 41.6088 53.6361 41.8657V41.9055C53.6161 42.6023 53.8759 43.3588 54.4352 44.1352C55.1087 45.0652 55.9567 45.8561 56.9325 46.4643C57.332 46.7231 57.8315 46.1657 58.251 45.9468C58.3239 45.9026 58.4058 45.8754 58.4907 45.8671C58.5307 45.8671 58.4308 46.0264 58.4707 46.0264C58.5402 45.9404 58.6292 45.8721 58.7305 45.8273Z" fill="#5A5A4D"/>
<path d="M24.141 4.08104C24.141 5.8329 22.9624 7.40559 22.2831 8.14217C21.6038 7.38568 20.4252 5.8329 20.4252 4.08104C20.4252 2.32918 21.6038 0.756485 22.2831 0C22.9624 0.756485 24.141 2.30927 24.141 4.08104Z" fill="#DCC97A"/>
<path d="M21.6038 13.4972C20.7846 13.2384 19.1265 12.5815 18.3274 11.1879C17.5282 9.79439 17.768 8.04253 17.9678 7.22632C18.7669 7.48512 20.445 8.14206 21.2442 9.53559C22.0433 10.9291 21.7836 12.681 21.6038 13.4972Z" fill="#DCC97A"/>
<path d="M26.2586 11.2082C25.4594 12.5818 23.8013 13.2586 22.9822 13.5174C22.8024 12.7012 22.5427 10.9294 23.3418 9.55585C24.1409 8.18223 25.7991 7.50538 26.6182 7.24658C26.818 8.06279 27.0577 9.83456 26.2586 11.2082Z" fill="#DCC97A"/>
<path d="M25.6669 23.7497C24.8677 25.1233 23.2096 25.8001 22.3906 26.0589C22.2107 25.2427 21.951 23.471 22.7502 22.0973C23.5493 20.7237 25.2074 20.0469 26.0265 19.7881C26.2263 20.6043 26.466 22.3561 25.6669 23.7497Z" fill="#FFEB94"/>
<path d="M25.6669 17.4789C24.8677 18.8525 23.2096 19.5294 22.3906 19.7882C22.2107 18.972 21.951 17.2002 22.7502 15.8266C23.5493 14.453 25.2074 13.7761 26.0265 13.5173C26.2263 14.3335 26.466 16.1053 25.6669 17.4789Z" fill="#FFEB94"/>
<path d="M21.6038 19.7682C20.7846 19.5094 19.1265 18.8525 18.3274 17.4589C17.5282 16.0654 17.768 14.3135 17.9678 13.4973C18.7669 13.7561 20.445 14.4131 21.2442 15.8066C22.0433 17.2001 21.7836 18.952 21.6038 19.7682Z" fill="#DCC97A"/>
<path d="M21.0121 26.0389C20.5362 25.8881 20.0748 25.6949 19.6337 25.4616C19.5737 25.4417 19.5337 25.4019 19.4738 25.382C19.4139 25.3621 19.4139 25.3421 19.374 25.3222C19.334 25.3023 19.334 25.3023 19.314 25.3023C18.9573 25.0919 18.6284 24.8377 18.3351 24.5458L18.2552 24.4662C18.1965 24.4116 18.1429 24.3516 18.0953 24.2871C18.0753 24.2472 18.0354 24.2273 18.0154 24.1875C17.9955 24.1477 17.9555 24.1278 17.9355 24.088C17.8575 23.9894 17.7905 23.8826 17.7357 23.7695C17.6748 23.6742 17.6213 23.5744 17.5759 23.4708C17.4093 23.112 17.3014 22.7289 17.2563 22.3361C17.1437 21.493 17.1842 20.6366 17.3761 19.8079C18.1953 20.0667 19.8534 20.7236 20.6525 22.1171C21.4517 23.4509 21.192 25.2227 21.0121 26.0389Z" fill="#FFEB94"/>
<path d="M40.2032 4.08104C40.2032 5.8329 39.0245 7.40559 38.3453 8.14217C37.666 7.38568 36.4873 5.8329 36.4873 4.08104C36.4873 2.32918 37.666 0.756485 38.3453 0C39.0245 0.756485 40.2032 2.30927 40.2032 4.08104Z" fill="#DCC97A"/>
<path d="M37.6661 13.4972C36.847 13.2384 35.1889 12.5815 34.3897 11.1879C33.5906 9.79439 33.8304 8.04253 34.0301 7.22632C34.8293 7.48512 36.5074 8.14206 37.3065 9.53559C38.1057 10.9291 37.8459 12.681 37.6661 13.4972Z" fill="#DCC97A"/>
<path d="M42.321 11.2082C41.5219 12.5818 39.8636 13.2586 39.0446 13.5174C38.8648 12.7012 38.6051 10.9294 39.4042 9.55585C40.2033 8.18223 41.8615 7.50538 42.6806 7.24658C42.8604 8.06279 43.1201 9.83456 42.321 11.2082Z" fill="#DCC97A"/>
<path d="M41.7293 23.7497C40.9301 25.1233 39.272 25.8001 38.4529 26.0589C38.2731 25.2427 38.0134 23.471 38.8126 22.0973C39.6116 20.7237 41.2698 20.0469 42.0889 19.7881C42.2687 20.6043 42.5284 22.3561 41.7293 23.7497Z" fill="#FFEB94"/>
<path d="M42.321 17.4789C41.5219 18.8525 39.8636 19.5294 39.0446 19.7882C38.8648 18.972 38.6051 17.2002 39.4042 15.8266C40.2033 14.453 41.8615 13.7761 42.6806 13.5173C42.8604 14.3335 43.1201 16.1053 42.321 17.4789Z" fill="#DCC97A"/>
<path d="M37.0743 19.7682C36.2553 19.5094 34.5971 18.8525 33.7979 17.4589C32.9988 16.0654 33.2386 14.3135 33.4383 13.4973C34.2375 13.7561 35.9156 14.4131 36.7148 15.8066C37.5139 17.2001 37.2542 18.952 37.0743 19.7682Z" fill="#FFEB94"/>
<path d="M37.0744 26.0389C36.5984 25.8881 36.1371 25.6949 35.6959 25.4616C35.636 25.4417 35.5961 25.4019 35.5361 25.382C35.4761 25.3621 35.4761 25.3421 35.4362 25.3222C35.3963 25.3023 35.3963 25.3023 35.3763 25.3023C35.0196 25.0919 34.6907 24.8377 34.3973 24.5458L34.3174 24.4662C34.2587 24.4116 34.2052 24.3516 34.1577 24.2871C34.1377 24.2472 34.0976 24.2273 34.0777 24.1875C34.0577 24.1477 34.0178 24.1278 33.9978 24.088C33.9197 23.9894 33.8528 23.8826 33.7981 23.7695C33.737 23.6742 33.6836 23.5744 33.6382 23.4708C33.4716 23.112 33.3636 22.7289 33.3185 22.3361C33.2059 21.493 33.2465 20.6366 33.4385 19.8079C34.2575 20.0667 35.9156 20.7236 36.7148 22.1171C37.494 23.4509 37.2542 25.2227 37.0744 26.0389Z" fill="#FFEB94"/>
<path d="M30.2019 44.991C39.0729 44.991 46.2642 37.825 46.2642 28.9854C46.2642 20.1457 39.0729 12.9797 30.2019 12.9797C21.3309 12.9797 14.1396 20.1457 14.1396 28.9854C14.1396 37.825 21.3309 44.991 30.2019 44.991Z" fill="#FFEB94"/>
<path d="M36.7348 41.8058C35.4362 44.0354 32.7592 45.1104 31.4606 45.5285C31.1609 44.1947 30.7614 41.3479 32.06 39.1182C33.3586 36.8886 36.0356 35.8136 37.3341 35.3955C37.6138 36.7293 38.0134 39.5761 36.7348 41.8058Z" fill="#5F9452"/>
<path d="M29.2229 25.2824C27.9244 24.8643 25.2273 23.7893 23.9488 21.5597C22.6702 19.33 23.0497 16.4832 23.3494 15.1494C24.648 15.5675 27.345 16.6425 28.6237 18.8721C29.9022 21.1018 29.5226 23.9486 29.2229 25.2824Z" fill="#5F9452"/>
<path d="M36.7348 21.5801C35.4362 23.8098 32.7592 24.8848 31.4606 25.3028C31.1609 23.969 30.7614 21.1222 32.06 18.8926C33.3586 16.663 36.0356 15.588 37.3341 15.1699C37.6138 16.5037 38.0134 19.3505 36.7348 21.5801Z" fill="#5F9452"/>
<path d="M30.9611 49.7091C30.7213 49.729 30.5016 49.729 30.2619 49.729H29.5626L30.2419 17.4191L30.2619 16.1848L30.2818 17.4589L30.9611 49.7091Z" fill="#D8BD49"/>
<path d="M36.7348 31.6927C35.4362 33.9223 32.7592 34.9973 31.4606 35.4154C31.1609 34.0816 30.7614 31.2348 32.06 29.0052C33.3586 26.7755 36.0356 25.7005 37.3341 25.2825C37.6138 26.6163 38.0134 29.463 36.7348 31.6927Z" fill="#5F9452"/>
<path d="M29.2231 35.3954C27.9245 34.9773 25.2274 33.9023 23.9289 31.6727C22.6303 29.443 23.0498 26.5963 23.3295 25.2625C24.6281 25.6805 27.3251 26.7555 28.6037 28.9852C29.9222 31.2148 29.5226 34.0815 29.2231 35.3954Z" fill="#5F9452"/>
<path d="M29.2229 45.5285C27.9244 45.1104 25.2273 44.0354 23.9488 41.8058C22.6702 39.5761 23.0497 36.7293 23.3494 35.3955C24.648 35.8136 27.345 36.8886 28.6436 39.1182C29.9421 41.3479 29.5226 44.1947 29.2229 45.5285Z" fill="#5F9452"/>
<path d="M33.3185 10.8695C33.3185 13.6964 31.4206 16.2246 30.3219 17.439C29.243 16.2246 27.3252 13.6964 27.3252 10.8695C27.3252 8.04266 29.243 5.51441 30.3219 4.30005C31.4206 5.4945 33.3185 8.02275 33.3185 10.8695Z" fill="#5F9452"/>
<path d="M48.262 8.10227C48.262 10.4713 46.6638 12.6014 45.7649 13.6167C44.8658 12.6014 43.2476 10.4912 43.2476 8.10227C43.2476 5.71337 44.8458 3.60318 45.7649 2.58789C46.6638 3.60318 48.262 5.73328 48.262 8.10227Z" fill="#D8BD49"/>
<path d="M44.8658 20.2859C43.767 19.9475 41.5096 19.0317 40.4307 17.1604C39.3519 15.2891 39.6916 12.9201 39.9313 11.7854C41.0301 12.1238 43.2876 13.0396 44.3664 14.9109C45.4452 16.7822 45.1056 19.1512 44.8658 20.2859Z" fill="#5F9452"/>
<path d="M51.1588 17.1604C50.08 19.0317 47.8225 19.9275 46.7238 20.2859C46.484 19.1711 46.1444 16.7822 47.2232 14.9109C48.302 13.0396 50.5595 12.1437 51.6583 11.7854C51.898 12.9002 52.2377 15.309 51.1588 17.1604Z" fill="#D8BD49"/>
<path d="M46.1643 42.9606C45.9646 43.1796 45.7448 43.3787 45.5451 43.5778C45.4836 43.6429 45.4167 43.7028 45.3452 43.7569L45.4651 34.2412V33.5444L45.7248 13.5772L45.7448 12.5818L45.7648 13.5971L46.0645 33.0666C46.0592 33.0666 46.0541 33.0687 46.0503 33.0724C46.0466 33.0762 46.0445 33.0812 46.0445 33.0865L46.0645 33.1064L46.0844 34.7986L46.1643 42.9606Z" fill="#D8BD49"/>
<path d="M46.0648 33.1078C46.0621 33.1051 46.0599 33.1018 46.0584 33.0983C46.0569 33.0947 46.0562 33.0909 46.0562 33.0871C46.0562 33.0832 46.0569 33.0794 46.0584 33.0758C46.0599 33.0723 46.0621 33.0691 46.0648 33.0664V33.1078Z" fill="#D8BD49"/>
<path d="M51.1588 25.6409C50.08 27.5122 47.8225 28.408 46.7238 28.7664C46.484 27.6516 46.1444 25.2627 47.2232 23.3913C48.302 21.52 50.5595 20.6242 51.6583 20.2659C51.898 21.3807 52.2377 23.7895 51.1588 25.6409Z" fill="#D8BD49"/>
<path d="M44.8658 28.7665C43.767 28.4281 41.5096 27.5123 40.4307 25.6609C39.3519 23.8095 39.6916 21.4007 39.9313 20.2859C41.0301 20.6243 43.2876 21.5401 44.3664 23.3915C45.4452 25.2429 45.1056 27.6517 44.8658 28.7665Z" fill="#5F9452"/>
<path d="M44.8658 37.2471C43.767 36.9087 41.5096 35.9929 40.4307 34.1216C39.3519 32.2503 39.6916 29.8813 39.9313 28.7466C41.0301 29.085 43.2876 30.0008 44.3664 31.8721C45.4452 33.7434 45.1056 36.1323 44.8658 37.2471Z" fill="#5F9452"/>
<path d="M51.6982 32.7282C51.5799 33.217 51.3915 33.6864 51.1389 34.1217C51.108 34.1656 51.0813 34.2122 51.059 34.2611C50.3398 35.4157 49.1411 36.1921 48.1222 36.6898C47.9824 36.7495 47.8426 36.8092 47.7226 36.8689C47.3431 37.0282 47.0034 37.1476 46.7238 37.2472C46.5645 36.5685 46.4841 35.8738 46.484 35.1768C46.4658 34.6564 46.506 34.1355 46.6039 33.624C46.6691 33.2785 46.7627 32.939 46.8836 32.6087C46.9831 32.3539 47.1035 32.1075 47.2432 31.8722C47.3445 31.6876 47.4651 31.5141 47.6028 31.3546C48.7615 29.8416 50.6994 29.0652 51.6783 28.7666C51.8381 29.6027 52.0778 31.1953 51.6982 32.7282Z" fill="#D8BD49"/>
<path d="M16.9766 7.76389C16.9766 10.1329 15.3784 12.263 14.4794 13.2783C13.5803 12.263 11.9622 10.1329 11.9622 7.76389C11.9622 5.3949 13.5604 3.2648 14.4794 2.24951C15.3784 3.2648 16.9766 5.3949 16.9766 7.76389Z" fill="#D8BD49"/>
<path d="M13.5404 20.5247C12.4416 20.1863 10.1841 19.2705 9.10529 17.3992C8.02648 15.5279 8.36611 13.1589 8.60584 12.0242C9.70463 12.3626 11.9622 13.2783 13.0409 15.1497C14.1197 17.021 13.8002 19.4099 13.5404 20.5247Z" fill="#D8BD49"/>
<path d="M19.8334 17.419C18.7546 19.2903 16.497 20.1861 15.3983 20.5445C15.1586 19.4296 14.819 17.0407 15.8978 15.1694C16.9766 13.2981 19.2341 12.4023 20.3328 12.0439C20.5926 13.1588 20.9122 15.5676 19.8334 17.419Z" fill="#5F9452"/>
<path d="M14.9188 44.5733C14.8988 44.5534 14.8789 44.5335 14.8589 44.5335C14.5792 44.2946 14.2795 44.0358 14.0198 43.777L14.4394 13.219L14.9188 44.5733Z" fill="#D8BD49"/>
<path d="M19.8334 34.3802C18.7546 36.2515 16.497 37.1473 15.3983 37.4857C15.1586 36.3709 14.819 33.982 15.8978 32.1107C16.9766 30.2394 19.2341 29.3436 20.3328 29.0051C20.5726 30.1399 20.9122 32.5288 19.8334 34.3802Z" fill="#5F9452"/>
<path d="M19.8334 25.8995C18.7546 27.7708 16.497 28.6666 15.3983 29.0249C15.1586 27.9101 14.819 25.5212 15.8978 23.6499C16.9766 21.7786 19.2341 20.8828 20.3328 20.5244C20.5726 21.6393 20.9122 24.0481 19.8334 25.8995Z" fill="#5F9452"/>
<path d="M13.5404 29.025C12.4416 28.6866 10.1841 27.7709 9.10529 25.9195C8.02648 24.0681 8.36611 21.6593 8.60584 20.5444C9.70463 20.8829 11.9622 21.7986 13.0409 23.65C14.1197 25.5014 13.8002 27.9102 13.5404 29.025Z" fill="#D8BD49"/>
<path d="M13.5404 37.5058C12.8986 37.3038 12.2767 37.0439 11.6824 36.7294C11.6224 36.6896 11.5425 36.6497 11.4826 36.6099C11.4386 36.5791 11.3918 36.5525 11.3428 36.5303C11.3228 36.5104 11.3029 36.5104 11.2828 36.4905C10.7997 36.2044 10.3564 35.8564 9.9643 35.4553L9.84444 35.3358C9.76072 35.259 9.6869 35.172 9.62468 35.077C9.58484 35.0356 9.55119 34.9887 9.52479 34.9377C9.48483 34.8979 9.46485 34.8382 9.42489 34.7983C9.32017 34.66 9.22665 34.5135 9.1452 34.3604C9.06417 34.2252 8.9908 34.0857 8.92544 33.9423C8.71227 33.4527 8.5645 32.9374 8.48593 32.4094C8.33165 31.2678 8.38579 30.1078 8.64576 28.9854C9.74454 29.3238 12.002 30.2395 13.0808 32.0909C14.1197 33.9821 13.8 36.3909 13.5404 37.5058Z" fill="#D8BD49"/>
<path d="M5.56915 41.1091C5.41942 40.6577 5.17416 40.2436 4.84994 39.8948C4.23345 39.2744 3.491 38.7924 2.67234 38.4813C2.09298 38.2623 1.81329 38.1429 1.25391 37.9239V36.2517C1.81329 36.4707 2.09298 36.5901 2.67234 36.8091C3.49854 37.1053 4.24411 37.5892 4.84994 38.2225C5.35158 38.73 5.64996 39.4025 5.68901 40.1137V40.1536C5.70721 40.4767 5.66659 40.8004 5.56915 41.1091Z" fill="#2D2D2A"/>
<path d="M9.40497 34.8185C9.30025 34.68 9.20672 34.5335 9.12527 34.3804C9.20518 34.5198 9.30507 34.6791 9.40497 34.8185Z" fill="#2D2D2A"/>
<path d="M11.6824 36.7094C11.6425 36.7891 11.5825 36.8687 11.5425 36.9484C11.3828 37.4662 11.1829 37.9242 11.123 38.4221C11.0431 37.7848 10.9233 37.1276 11.2629 36.4705C11.2829 36.4904 11.3029 36.4904 11.3228 36.5103C11.3428 36.5302 11.4227 36.57 11.4626 36.5899C11.5625 36.6497 11.6225 36.6696 11.6824 36.7094Z" fill="#2D2D2A"/>
<path d="M48.222 39.2385C48.142 38.5216 48.3618 37.5458 47.7225 36.8687C47.7225 36.8687 48.0422 36.7094 48.1821 36.6497C48.3343 37.5049 48.3478 38.379 48.222 39.2385Z" fill="#2D2D2A"/>
<path d="M57.9513 37.9039C57.3919 38.1428 57.1123 38.2622 56.5529 38.4812C55.7394 38.7797 55.0073 39.2637 54.4152 39.8946C54.1153 40.2316 53.8846 40.6239 53.7359 41.0493C53.6583 40.7637 53.618 40.4693 53.6161 40.1734V40.1335C53.6393 39.4206 53.9236 38.7408 54.4152 38.2224C55.0057 37.5895 55.7383 37.1052 56.5529 36.809C57.1123 36.59 57.3919 36.4706 57.9513 36.2317C57.9513 36.4905 57.9314 37.0678 57.9513 37.9039Z" fill="#2D2D2A"/>
<path d="M58.7304 45.8271V47.4993C57.1921 49.3905 55.6338 51.2817 54.0356 53.1331C53.0367 52.9739 52.5372 52.8942 51.5383 52.7151C49.9673 52.4034 48.3604 52.3096 46.7636 52.4364C45.2458 52.5464 43.762 52.938 42.3884 53.591C42.3685 53.6109 42.3485 53.6109 42.3086 53.6308C41.0115 54.2653 39.8406 55.1286 38.8523 56.179C37.8795 57.2019 37.1311 58.4155 36.6548 59.7424C36.375 60.5586 36.2153 60.9966 35.9156 61.8327C31.8631 62.0683 27.7998 62.055 23.749 61.7929C23.4493 60.9369 23.2895 60.5188 23.0098 59.7026C22.541 58.372 21.7917 57.157 20.8122 56.1392C19.8093 55.088 18.6252 54.2249 17.316 53.591C17.2961 53.5711 17.2761 53.5711 17.2361 53.5512C15.8559 52.8941 14.366 52.496 12.841 52.3766C11.2318 52.2436 9.61186 52.3307 8.02633 52.6354C7.02744 52.8146 6.52798 52.8942 5.52908 53.0535C3.93085 51.1623 2.31264 49.291 0.734375 47.3998V45.7275H0.754355C0.774332 45.7275 0.754355 45.7275 0.754355 45.7474L0.79431 45.7873L0.814286 45.8072C2.37256 47.6586 3.95083 49.51 5.54907 51.3415C6.54797 51.1822 7.06739 51.1026 8.04631 50.9234C9.63184 50.6186 11.2518 50.5316 12.861 50.6646C14.3859 50.7839 15.8759 51.1821 17.2561 51.8391C17.2761 51.859 17.2961 51.8591 17.3361 51.879C18.6494 52.5058 19.8347 53.3698 20.8322 54.4271C21.8117 55.4449 22.561 56.66 23.0298 57.9906C23.3095 58.8267 23.4692 59.2447 23.7689 60.0808C27.8198 60.3429 31.8831 60.3562 35.9356 60.1207C36.2352 59.2646 36.395 58.8466 36.6747 58.0304C37.1435 56.6998 37.8928 55.4848 38.8723 54.4669C39.86 53.4212 41.0313 52.5643 42.3285 51.9387C42.3485 51.9188 42.3885 51.9188 42.4084 51.8989C43.7829 51.2483 45.2662 50.8568 46.7836 50.7442C48.3804 50.6179 49.9872 50.7116 51.5583 51.0229C52.5572 51.2021 53.0566 51.3016 54.0556 51.441C55.6338 49.5896 57.1921 47.7183 58.7304 45.8271Z" fill="#2D2D2A"/>
<path d="M58.7305 45.8271C58.6905 45.8271 58.4907 46.0859 58.4707 46.0859C58.271 46.0859 58.4108 45.9863 58.3709 45.9863C58.291 46.0062 58.3509 46.046 58.271 46.0859C57.8515 46.3048 57.2721 47.0414 56.8725 46.7826C55.7338 46.046 54.9346 44.971 54.3753 44.1947C53.8826 43.4922 53.605 42.6623 53.5762 41.8057C53.5883 41.4976 53.6559 41.1942 53.7759 40.9099C53.9211 41.4378 54.1577 41.9364 54.4752 42.3831C55.1432 43.3178 55.9923 44.1098 56.9724 44.7122C57.6517 45.1701 58.0113 45.3891 58.7305 45.8271Z" fill="#5A5A4D"/>
</svg>
