<svg width="250" height="93" viewBox="0 0 250 93" fill="none" xmlns="http://www.w3.org/2000/svg">
<path d="M22.6227 62.5497C22.4029 62.49 22.2032 62.4104 21.9834 62.3506L22.0233 55.1441L22.0433 51.6404L22.0632 49.0922L22.0832 47.002L22.1032 44.8719L22.1232 42.3635L22.1431 38.9593L22.1832 33.1065L22.2631 21.1023L22.3629 33.425L22.4029 39.2181L22.4229 42.5228L22.4428 44.9714L22.4628 46.9821L22.4828 48.9529L22.5027 51.3418L22.5227 54.6066L22.5628 60.1409L22.6227 62.5497Z" fill="#D8BD49"/>
<path d="M38.6649 61.9923C38.4652 62.0719 38.2454 62.1715 38.0256 62.2511L38.1256 49.1122L38.1455 47.002L38.1655 44.8719L38.1855 42.3436L38.2055 38.9792L38.2454 33.1463L38.3253 21.1023L38.4252 32.8278L38.4652 38.7204L38.4852 42.1445L38.5251 46.9621L38.5451 49.1918L38.6649 61.9923Z" fill="#D8BD49"/>
<path d="M58.7305 58.8273C57.1922 60.7185 55.6339 62.6097 54.0356 64.4611C53.0367 64.3019 52.5373 64.2222 51.5384 64.0431C49.9673 63.7314 48.3605 63.6376 46.7637 63.7644C45.2459 63.8744 43.7621 64.266 42.3885 64.919C42.3685 64.9389 42.3486 64.9389 42.3086 64.9588C41.0167 65.5931 39.8468 66.4489 38.8524 67.4871C37.8854 68.4995 37.1493 69.7083 36.6948 71.0306C36.415 71.8468 36.2952 72.2848 35.9955 73.1209C31.9168 73.3631 27.827 73.3565 23.7491 73.101C23.4494 72.245 23.2896 71.8269 23.0098 71.0107C22.5411 69.6801 21.7918 68.4651 20.8123 67.4473C19.8095 66.3961 18.6252 65.533 17.3162 64.8991C17.2962 64.8792 17.2762 64.8792 17.2363 64.8593C15.856 64.2022 14.3661 63.8041 12.8411 63.6847C11.2319 63.5517 9.61195 63.6388 8.02641 63.9435C7.02751 64.1227 6.52807 64.2023 5.52917 64.3616C3.93093 62.5301 2.35267 60.6787 0.794391 58.8273L0.774412 58.8074L0.734456 58.7676V58.7477C0.734456 58.7278 0.734455 58.7477 0.714478 58.7477C1.43368 58.3296 1.77331 58.1106 2.47255 57.6727C3.43466 57.0779 4.26967 56.2999 4.92982 55.3833C5.20722 55.0039 5.41674 54.5796 5.54915 54.1291C5.64778 53.8207 5.68842 53.4967 5.66902 53.1736V53.1338C5.63385 52.4216 5.33488 51.7477 4.82994 51.2425C4.21346 50.6221 3.471 50.1402 2.65235 49.8291C2.07299 49.6101 1.79329 49.4907 1.2339 49.2717C1.25388 49.2518 1.27386 49.212 1.29384 49.1921C2.2328 48.0374 2.65234 47.3606 3.51139 46.3851C4.2306 46.2856 4.5902 46.2458 5.30941 46.1462C6.39866 46.0008 7.47432 45.7678 8.52586 45.4495C8.59066 45.9629 8.72507 46.4651 8.92542 46.9425C8.98535 47.0819 9.14518 47.3009 9.22509 47.4402C9.31362 47.5811 9.41386 47.7142 9.52476 47.8384L9.62465 47.9379C9.66582 48 9.69936 48.0669 9.72454 48.137C9.80445 48.2166 9.82443 48.2564 9.90434 48.3361C9.9443 48.3759 10.0842 48.4953 10.1241 48.5351C10.4771 48.891 10.881 49.1929 11.3228 49.431C11.1391 50.1118 11.0916 50.8221 11.1829 51.5213C11.4226 53.512 12.4615 55.244 13.9799 56.737L14.0198 56.7768C14.2795 57.0356 14.5792 57.2944 14.8589 57.5333C14.8789 57.5532 14.8988 57.5731 14.9188 57.5731C16.8767 59.1856 19.4139 60.4398 21.991 61.3158C22.2107 61.3954 22.4106 61.4551 22.6303 61.5148C25.0077 62.2514 27.3851 62.6695 29.3629 62.7093H30.2219C30.4417 62.7093 30.6815 62.6894 30.9211 62.6894C33.3613 62.5739 35.7681 62.0768 38.0533 61.2162C38.2731 61.1366 38.4728 61.0569 38.6926 60.9574C38.729 60.9353 38.77 60.9217 38.8124 60.9176C41.2098 59.8625 43.5272 58.469 45.3053 56.7967C45.3801 56.7184 45.4602 56.6453 45.5451 56.5778C45.7448 56.3787 45.9646 56.1796 46.1643 55.9606C47.1433 54.9254 48.0423 53.731 48.2221 52.3176V52.2976C48.3126 51.4065 48.2654 50.5069 48.0823 49.63C49.1211 49.1324 50.2599 48.4953 50.9791 47.3407C51.0163 47.2764 51.0497 47.2099 51.0789 47.1416C51.3372 46.728 51.5324 46.2785 51.6583 45.8078C52.2655 45.9379 52.879 46.0376 53.4963 46.1064C54.2754 46.2059 54.655 46.2458 55.4541 46.3453C56.6727 47.3407 56.9724 48.0573 57.9713 49.2717V49.2916C57.4119 49.5305 57.1323 49.63 56.5728 49.8689C55.7594 50.1674 55.0273 50.6514 54.4352 51.2824C53.9515 51.8059 53.6685 52.4826 53.6361 53.1935V53.2333C53.638 53.5292 53.6783 53.8236 53.7559 54.1092C53.6757 54.3534 53.6353 54.6088 53.6361 54.8657V54.9055C53.6161 55.6023 53.8759 56.3588 54.4352 57.1352C55.1087 58.0652 55.9567 58.8561 56.9325 59.4643C57.332 59.7231 57.8315 59.1657 58.251 58.9468C58.3239 58.9026 58.4058 58.8754 58.4907 58.8671C58.5307 58.8671 58.4308 59.0264 58.4707 59.0264C58.5402 58.9404 58.6292 58.8721 58.7305 58.8273Z" fill="#5A5A4D"/>
<path d="M24.141 17.081C24.141 18.8329 22.9624 20.4056 22.2831 21.1422C21.6038 20.3857 20.4252 18.8329 20.4252 17.081C20.4252 15.3292 21.6038 13.7565 22.2831 13C22.9624 13.7565 24.141 15.3093 24.141 17.081Z" fill="#DCC97A"/>
<path d="M21.6038 26.4972C20.7846 26.2384 19.1265 25.5815 18.3274 24.1879C17.5282 22.7944 17.768 21.0425 17.9678 20.2263C18.7669 20.4851 20.445 21.1421 21.2442 22.5356C22.0433 23.9291 21.7836 25.681 21.6038 26.4972Z" fill="#DCC97A"/>
<path d="M26.2586 24.2082C25.4594 25.5818 23.8013 26.2586 22.9822 26.5174C22.8024 25.7012 22.5427 23.9294 23.3418 22.5559C24.1409 21.1822 25.7991 20.5054 26.6182 20.2466C26.818 21.0628 27.0577 22.8346 26.2586 24.2082Z" fill="#DCC97A"/>
<path d="M25.6669 36.7497C24.8677 38.1233 23.2096 38.8001 22.3906 39.0589C22.2107 38.2427 21.951 36.471 22.7502 35.0973C23.5493 33.7237 25.2074 33.0469 26.0265 32.7881C26.2263 33.6043 26.466 35.3561 25.6669 36.7497Z" fill="#FFEB94"/>
<path d="M25.6669 30.4789C24.8677 31.8525 23.2096 32.5294 22.3906 32.7882C22.2107 31.972 21.951 30.2002 22.7502 28.8266C23.5493 27.453 25.2074 26.7761 26.0265 26.5173C26.2263 27.3335 26.466 29.1053 25.6669 30.4789Z" fill="#FFEB94"/>
<path d="M21.6038 32.7682C20.7846 32.5094 19.1265 31.8525 18.3274 30.4589C17.5282 29.0654 17.768 27.3135 17.9678 26.4973C18.7669 26.7561 20.445 27.4131 21.2442 28.8066C22.0433 30.2001 21.7836 31.952 21.6038 32.7682Z" fill="#DCC97A"/>
<path d="M21.0121 39.0389C20.5362 38.8881 20.0748 38.6949 19.6337 38.4616C19.5737 38.4417 19.5337 38.4019 19.4738 38.382C19.4139 38.3621 19.4139 38.3421 19.374 38.3222C19.334 38.3023 19.334 38.3023 19.314 38.3023C18.9573 38.0919 18.6284 37.8377 18.3351 37.5458L18.2552 37.4662C18.1965 37.4116 18.1429 37.3516 18.0953 37.2871C18.0753 37.2472 18.0354 37.2273 18.0154 37.1875C17.9955 37.1477 17.9555 37.1278 17.9355 37.088C17.8575 36.9894 17.7905 36.8826 17.7357 36.7695C17.6748 36.6742 17.6213 36.5744 17.5759 36.4708C17.4093 36.112 17.3014 35.7289 17.2563 35.3361C17.1437 34.493 17.1842 33.6366 17.3761 32.8079C18.1953 33.0667 19.8534 33.7236 20.6525 35.1171C21.4517 36.4509 21.192 38.2227 21.0121 39.0389Z" fill="#FFEB94"/>
<path d="M40.2032 17.081C40.2032 18.8329 39.0245 20.4056 38.3453 21.1422C37.666 20.3857 36.4873 18.8329 36.4873 17.081C36.4873 15.3292 37.666 13.7565 38.3453 13C39.0245 13.7565 40.2032 15.3093 40.2032 17.081Z" fill="#DCC97A"/>
<path d="M37.6661 26.4972C36.847 26.2384 35.1889 25.5815 34.3897 24.1879C33.5906 22.7944 33.8304 21.0425 34.0301 20.2263C34.8293 20.4851 36.5074 21.1421 37.3065 22.5356C38.1057 23.9291 37.8459 25.681 37.6661 26.4972Z" fill="#DCC97A"/>
<path d="M42.321 24.2082C41.5219 25.5818 39.8636 26.2586 39.0446 26.5174C38.8648 25.7012 38.6051 23.9294 39.4042 22.5559C40.2033 21.1822 41.8615 20.5054 42.6806 20.2466C42.8604 21.0628 43.1201 22.8346 42.321 24.2082Z" fill="#DCC97A"/>
<path d="M41.7293 36.7497C40.9301 38.1233 39.272 38.8001 38.4529 39.0589C38.2731 38.2427 38.0134 36.471 38.8126 35.0973C39.6116 33.7237 41.2698 33.0469 42.0889 32.7881C42.2687 33.6043 42.5284 35.3561 41.7293 36.7497Z" fill="#FFEB94"/>
<path d="M42.321 30.4789C41.5219 31.8525 39.8636 32.5294 39.0446 32.7882C38.8648 31.972 38.6051 30.2002 39.4042 28.8266C40.2033 27.453 41.8615 26.7761 42.6806 26.5173C42.8604 27.3335 43.1201 29.1053 42.321 30.4789Z" fill="#DCC97A"/>
<path d="M37.0743 32.7682C36.2553 32.5094 34.5971 31.8525 33.7979 30.4589C32.9988 29.0654 33.2386 27.3135 33.4383 26.4973C34.2375 26.7561 35.9156 27.4131 36.7148 28.8066C37.5139 30.2001 37.2542 31.952 37.0743 32.7682Z" fill="#FFEB94"/>
<path d="M37.0744 39.0389C36.5984 38.8881 36.1371 38.6949 35.6959 38.4616C35.636 38.4417 35.5961 38.4019 35.5361 38.382C35.4761 38.3621 35.4761 38.3421 35.4362 38.3222C35.3963 38.3023 35.3963 38.3023 35.3763 38.3023C35.0196 38.0919 34.6907 37.8377 34.3973 37.5458L34.3174 37.4662C34.2587 37.4116 34.2052 37.3516 34.1577 37.2871C34.1377 37.2472 34.0976 37.2273 34.0777 37.1875C34.0577 37.1477 34.0178 37.1278 33.9978 37.088C33.9197 36.9894 33.8528 36.8826 33.7981 36.7695C33.737 36.6742 33.6836 36.5744 33.6382 36.4708C33.4716 36.112 33.3636 35.7289 33.3185 35.3361C33.2059 34.493 33.2465 33.6366 33.4385 32.8079C34.2575 33.0667 35.9156 33.7236 36.7148 35.1171C37.494 36.4509 37.2542 38.2227 37.0744 39.0389Z" fill="#FFEB94"/>
<path d="M30.2019 57.991C39.0729 57.991 46.2642 50.825 46.2642 41.9854C46.2642 33.1457 39.0729 25.9797 30.2019 25.9797C21.3309 25.9797 14.1396 33.1457 14.1396 41.9854C14.1396 50.825 21.3309 57.991 30.2019 57.991Z" fill="#FFEB94"/>
<path d="M36.7348 54.8058C35.4362 57.0354 32.7592 58.1104 31.4606 58.5285C31.1609 57.1947 30.7614 54.3479 32.06 52.1182C33.3586 49.8886 36.0356 48.8136 37.3341 48.3955C37.6138 49.7293 38.0134 52.5761 36.7348 54.8058Z" fill="#5F9452"/>
<path d="M29.2229 38.2824C27.9244 37.8643 25.2273 36.7893 23.9488 34.5597C22.6702 32.33 23.0497 29.4832 23.3494 28.1494C24.648 28.5675 27.345 29.6425 28.6237 31.8721C29.9022 34.1018 29.5226 36.9486 29.2229 38.2824Z" fill="#5F9452"/>
<path d="M36.7348 34.5801C35.4362 36.8098 32.7592 37.8848 31.4606 38.3028C31.1609 36.969 30.7614 34.1222 32.06 31.8926C33.3586 29.663 36.0356 28.588 37.3341 28.1699C37.6138 29.5037 38.0134 32.3505 36.7348 34.5801Z" fill="#5F9452"/>
<path d="M30.9611 62.7091C30.7213 62.729 30.5016 62.729 30.2619 62.729H29.5626L30.2419 30.4191L30.2619 29.1848L30.2818 30.4589L30.9611 62.7091Z" fill="#D8BD49"/>
<path d="M36.7348 44.6927C35.4362 46.9223 32.7592 47.9973 31.4606 48.4154C31.1609 47.0816 30.7614 44.2348 32.06 42.0052C33.3586 39.7755 36.0356 38.7005 37.3341 38.2825C37.6138 39.6163 38.0134 42.463 36.7348 44.6927Z" fill="#5F9452"/>
<path d="M29.2231 48.3954C27.9245 47.9773 25.2274 46.9023 23.9289 44.6727C22.6303 42.443 23.0498 39.5963 23.3295 38.2625C24.6281 38.6805 27.3251 39.7555 28.6037 41.9852C29.9222 44.2148 29.5226 47.0815 29.2231 48.3954Z" fill="#5F9452"/>
<path d="M29.2229 58.5285C27.9244 58.1104 25.2273 57.0354 23.9488 54.8058C22.6702 52.5761 23.0497 49.7293 23.3494 48.3955C24.648 48.8136 27.345 49.8886 28.6436 52.1182C29.9421 54.3479 29.5226 57.1947 29.2229 58.5285Z" fill="#5F9452"/>
<path d="M33.3185 23.8695C33.3185 26.6964 31.4206 29.2246 30.3219 30.439C29.243 29.2246 27.3252 26.6964 27.3252 23.8695C27.3252 21.0427 29.243 18.5144 30.3219 17.3C31.4206 18.4945 33.3185 21.0227 33.3185 23.8695Z" fill="#5F9452"/>
<path d="M48.262 21.1023C48.262 23.4713 46.6638 25.6014 45.7649 26.6167C44.8658 25.6014 43.2476 23.4912 43.2476 21.1023C43.2476 18.7134 44.8458 16.6032 45.7649 15.5879C46.6638 16.6032 48.262 18.7333 48.262 21.1023Z" fill="#D8BD49"/>
<path d="M44.8658 33.2859C43.767 32.9475 41.5096 32.0317 40.4307 30.1604C39.3519 28.2891 39.6916 25.9201 39.9313 24.7854C41.0301 25.1238 43.2876 26.0396 44.3664 27.9109C45.4452 29.7822 45.1056 32.1512 44.8658 33.2859Z" fill="#5F9452"/>
<path d="M51.1588 30.1604C50.08 32.0317 47.8225 32.9275 46.7238 33.2859C46.484 32.1711 46.1444 29.7822 47.2232 27.9109C48.302 26.0396 50.5595 25.1437 51.6583 24.7854C51.898 25.9002 52.2377 28.309 51.1588 30.1604Z" fill="#D8BD49"/>
<path d="M46.1643 55.9606C45.9646 56.1796 45.7448 56.3787 45.5451 56.5778C45.4836 56.6429 45.4167 56.7028 45.3452 56.7569L45.4651 47.2412V46.5444L45.7248 26.5772L45.7448 25.5818L45.7648 26.5971L46.0645 46.0666C46.0592 46.0666 46.0541 46.0687 46.0503 46.0724C46.0466 46.0762 46.0445 46.0812 46.0445 46.0865L46.0645 46.1064L46.0844 47.7986L46.1643 55.9606Z" fill="#D8BD49"/>
<path d="M46.0648 46.1078C46.0621 46.1051 46.0599 46.1018 46.0584 46.0983C46.0569 46.0947 46.0562 46.0909 46.0562 46.0871C46.0562 46.0832 46.0569 46.0794 46.0584 46.0758C46.0599 46.0723 46.0621 46.0691 46.0648 46.0664V46.1078Z" fill="#D8BD49"/>
<path d="M51.1588 38.6409C50.08 40.5122 47.8225 41.408 46.7238 41.7664C46.484 40.6516 46.1444 38.2627 47.2232 36.3913C48.302 34.52 50.5595 33.6242 51.6583 33.2659C51.898 34.3807 52.2377 36.7895 51.1588 38.6409Z" fill="#D8BD49"/>
<path d="M44.8658 41.7665C43.767 41.4281 41.5096 40.5123 40.4307 38.6609C39.3519 36.8095 39.6916 34.4007 39.9313 33.2859C41.0301 33.6243 43.2876 34.5401 44.3664 36.3915C45.4452 38.2429 45.1056 40.6517 44.8658 41.7665Z" fill="#5F9452"/>
<path d="M44.8658 50.2471C43.767 49.9087 41.5096 48.9929 40.4307 47.1216C39.3519 45.2503 39.6916 42.8813 39.9313 41.7466C41.0301 42.085 43.2876 43.0008 44.3664 44.8721C45.4452 46.7434 45.1056 49.1323 44.8658 50.2471Z" fill="#5F9452"/>
<path d="M51.6982 45.7282C51.5799 46.217 51.3915 46.6864 51.1389 47.1217C51.108 47.1656 51.0813 47.2122 51.059 47.2611C50.3398 48.4157 49.1411 49.1921 48.1222 49.6898C47.9824 49.7495 47.8426 49.8092 47.7226 49.8689C47.3431 50.0282 47.0034 50.1476 46.7238 50.2472C46.5645 49.5685 46.4841 48.8738 46.484 48.1768C46.4658 47.6564 46.506 47.1355 46.6039 46.624C46.6691 46.2785 46.7627 45.939 46.8836 45.6087C46.9831 45.3539 47.1035 45.1075 47.2432 44.8722C47.3445 44.6876 47.4651 44.5141 47.6028 44.3546C48.7615 42.8416 50.6994 42.0652 51.6783 41.7666C51.8381 42.6027 52.0778 44.1953 51.6982 45.7282Z" fill="#D8BD49"/>
<path d="M16.9766 20.7639C16.9766 23.1329 15.3784 25.263 14.4794 26.2783C13.5803 25.263 11.9622 23.1329 11.9622 20.7639C11.9622 18.3949 13.5604 16.2648 14.4794 15.2495C15.3784 16.2648 16.9766 18.3949 16.9766 20.7639Z" fill="#D8BD49"/>
<path d="M13.5404 33.5247C12.4416 33.1863 10.1841 32.2705 9.10529 30.3992C8.02648 28.5279 8.36611 26.1589 8.60584 25.0242C9.70463 25.3626 11.9622 26.2783 13.0409 28.1497C14.1197 30.021 13.8002 32.4099 13.5404 33.5247Z" fill="#D8BD49"/>
<path d="M19.8334 30.419C18.7546 32.2903 16.497 33.1861 15.3983 33.5445C15.1586 32.4296 14.819 30.0407 15.8978 28.1694C16.9766 26.2981 19.2341 25.4023 20.3328 25.0439C20.5926 26.1588 20.9122 28.5676 19.8334 30.419Z" fill="#5F9452"/>
<path d="M14.9188 57.5733C14.8988 57.5534 14.8789 57.5335 14.8589 57.5335C14.5792 57.2946 14.2795 57.0358 14.0198 56.777L14.4394 26.219L14.9188 57.5733Z" fill="#D8BD49"/>
<path d="M19.8334 47.3802C18.7546 49.2515 16.497 50.1473 15.3983 50.4857C15.1586 49.3709 14.819 46.982 15.8978 45.1107C16.9766 43.2394 19.2341 42.3436 20.3328 42.0051C20.5726 43.1399 20.9122 45.5288 19.8334 47.3802Z" fill="#5F9452"/>
<path d="M19.8334 38.8995C18.7546 40.7708 16.497 41.6666 15.3983 42.0249C15.1586 40.9101 14.819 38.5212 15.8978 36.6499C16.9766 34.7786 19.2341 33.8828 20.3328 33.5244C20.5726 34.6393 20.9122 37.0481 19.8334 38.8995Z" fill="#5F9452"/>
<path d="M13.5404 42.025C12.4416 41.6866 10.1841 40.7709 9.10529 38.9195C8.02648 37.0681 8.36611 34.6593 8.60584 33.5444C9.70463 33.8829 11.9622 34.7986 13.0409 36.65C14.1197 38.5014 13.8002 40.9102 13.5404 42.025Z" fill="#D8BD49"/>
<path d="M13.5404 50.5058C12.8986 50.3038 12.2767 50.0439 11.6824 49.7294C11.6224 49.6896 11.5425 49.6497 11.4826 49.6099C11.4386 49.5791 11.3918 49.5525 11.3428 49.5303C11.3228 49.5104 11.3029 49.5104 11.2828 49.4905C10.7997 49.2044 10.3564 48.8564 9.9643 48.4553L9.84444 48.3358C9.76072 48.259 9.6869 48.172 9.62468 48.077C9.58484 48.0356 9.55119 47.9887 9.52479 47.9377C9.48483 47.8979 9.46485 47.8382 9.42489 47.7983C9.32017 47.66 9.22665 47.5135 9.1452 47.3604C9.06417 47.2252 8.9908 47.0857 8.92544 46.9423C8.71227 46.4527 8.5645 45.9374 8.48593 45.4094C8.33165 44.2678 8.38579 43.1078 8.64576 41.9854C9.74454 42.3238 12.002 43.2395 13.0808 45.0909C14.1197 46.9821 13.8 49.3909 13.5404 50.5058Z" fill="#D8BD49"/>
<path d="M5.56915 54.1091C5.41942 53.6577 5.17416 53.2436 4.84994 52.8948C4.23345 52.2744 3.491 51.7924 2.67234 51.4813C2.09298 51.2623 1.81329 51.1429 1.25391 50.9239V49.2517C1.81329 49.4707 2.09298 49.5901 2.67234 49.8091C3.49854 50.1053 4.24411 50.5892 4.84994 51.2225C5.35158 51.73 5.64996 52.4025 5.68901 53.1137V53.1536C5.70721 53.4767 5.66659 53.8004 5.56915 54.1091Z" fill="#2D2D2A"/>
<path d="M9.40497 47.8185C9.30025 47.68 9.20672 47.5335 9.12527 47.3804C9.20518 47.5198 9.30507 47.6791 9.40497 47.8185Z" fill="#2D2D2A"/>
<path d="M11.6824 49.7094C11.6425 49.7891 11.5825 49.8687 11.5425 49.9484C11.3828 50.4662 11.1829 50.9242 11.123 51.4221C11.0431 50.7848 10.9233 50.1276 11.2629 49.4705C11.2829 49.4904 11.3029 49.4904 11.3228 49.5103C11.3428 49.5302 11.4227 49.57 11.4626 49.5899C11.5625 49.6497 11.6225 49.6696 11.6824 49.7094Z" fill="#2D2D2A"/>
<path d="M48.222 52.2385C48.142 51.5216 48.3618 50.5458 47.7225 49.8687C47.7225 49.8687 48.0422 49.7094 48.1821 49.6497C48.3343 50.5049 48.3478 51.379 48.222 52.2385Z" fill="#2D2D2A"/>
<path d="M57.9513 50.9039C57.3919 51.1428 57.1123 51.2622 56.5529 51.4812C55.7394 51.7797 55.0073 52.2637 54.4152 52.8946C54.1153 53.2316 53.8846 53.6239 53.7359 54.0493C53.6583 53.7637 53.618 53.4693 53.6161 53.1734V53.1335C53.6393 52.4206 53.9236 51.7408 54.4152 51.2224C55.0057 50.5895 55.7383 50.1052 56.5529 49.809C57.1123 49.59 57.3919 49.4706 57.9513 49.2317C57.9513 49.4905 57.9314 50.0678 57.9513 50.9039Z" fill="#2D2D2A"/>
<path d="M58.7304 58.8271V60.4993C57.1921 62.3905 55.6338 64.2817 54.0356 66.1331C53.0367 65.9739 52.5372 65.8942 51.5383 65.7151C49.9673 65.4034 48.3604 65.3096 46.7636 65.4364C45.2458 65.5464 43.762 65.938 42.3884 66.591C42.3685 66.6109 42.3485 66.6109 42.3086 66.6308C41.0115 67.2653 39.8406 68.1286 38.8523 69.179C37.8795 70.2019 37.1311 71.4155 36.6548 72.7424C36.375 73.5586 36.2153 73.9966 35.9156 74.8327C31.8631 75.0683 27.7998 75.055 23.749 74.7929C23.4493 73.9369 23.2895 73.5188 23.0098 72.7026C22.541 71.372 21.7917 70.157 20.8122 69.1392C19.8093 68.088 18.6252 67.2249 17.316 66.591C17.2961 66.5711 17.2761 66.5711 17.2361 66.5512C15.8559 65.8941 14.366 65.496 12.841 65.3766C11.2318 65.2436 9.61186 65.3307 8.02633 65.6354C7.02744 65.8146 6.52798 65.8942 5.52908 66.0535C3.93085 64.1623 2.31264 62.291 0.734375 60.3998V58.7275H0.754355C0.774332 58.7275 0.754355 58.7275 0.754355 58.7474L0.79431 58.7873L0.814286 58.8072C2.37256 60.6586 3.95083 62.51 5.54907 64.3415C6.54797 64.1822 7.06739 64.1026 8.04631 63.9234C9.63184 63.6186 11.2518 63.5316 12.861 63.6646C14.3859 63.7839 15.8759 64.1821 17.2561 64.8391C17.2761 64.859 17.2961 64.8591 17.3361 64.879C18.6494 65.5058 19.8347 66.3698 20.8322 67.4271C21.8117 68.4449 22.561 69.66 23.0298 70.9906C23.3095 71.8267 23.4692 72.2447 23.7689 73.0808C27.8198 73.3429 31.8831 73.3562 35.9356 73.1207C36.2352 72.2646 36.395 71.8466 36.6747 71.0304C37.1435 69.6998 37.8928 68.4848 38.8723 67.4669C39.86 66.4212 41.0313 65.5643 42.3285 64.9387C42.3485 64.9188 42.3885 64.9188 42.4084 64.8989C43.7829 64.2483 45.2662 63.8568 46.7836 63.7442C48.3804 63.6179 49.9872 63.7116 51.5583 64.0229C52.5572 64.2021 53.0566 64.3016 54.0556 64.441C55.6338 62.5896 57.1921 60.7183 58.7304 58.8271Z" fill="#2D2D2A"/>
<path d="M58.7305 58.8271C58.6905 58.8271 58.4907 59.0859 58.4707 59.0859C58.271 59.0859 58.4108 58.9863 58.3709 58.9863C58.291 59.0062 58.3509 59.046 58.271 59.0859C57.8515 59.3048 57.2721 60.0414 56.8725 59.7826C55.7338 59.046 54.9346 57.971 54.3753 57.1947C53.8826 56.4922 53.605 55.6623 53.5762 54.8057C53.5883 54.4976 53.6559 54.1942 53.7759 53.9099C53.9211 54.4378 54.1577 54.9364 54.4752 55.3831C55.1432 56.3178 55.9923 57.1098 56.9724 57.7122C57.6517 58.1701 58.0113 58.3891 58.7305 58.8271Z" fill="#5A5A4D"/>
<path d="M90.2567 34.1944V37.0902H82.888V34.1944H90.2567ZM77.7974 38.4004H81.3942C81.4554 39.3796 81.7614 40.1167 82.3121 40.6119C82.8629 41.107 83.678 41.3546 84.7573 41.3546C85.6363 41.3546 86.3345 41.1487 86.8519 40.737C87.3693 40.3253 87.7421 39.7328 87.9702 38.9595C88.1983 38.1806 88.3123 37.2488 88.3123 36.1639V34.7786C88.3123 33.6603 88.1816 32.7173 87.9201 31.9496C87.6642 31.1763 87.272 30.5921 86.7434 30.1971C86.2205 29.8021 85.5501 29.6046 84.7322 29.6046C83.9255 29.6046 83.2857 29.727 82.8129 29.9718C82.34 30.2166 81.995 30.5671 81.7781 31.0233C81.5611 31.4739 81.4276 32.0191 81.3775 32.6589H77.7807C77.892 31.5351 78.2147 30.5225 78.7488 29.6213C79.2884 28.7144 80.0534 27.9967 81.0437 27.4682C82.0395 26.9397 83.2691 26.6754 84.7322 26.6754C86.1843 26.6754 87.4444 27.0065 88.5126 27.6685C89.5808 28.3306 90.407 29.268 90.9911 30.4808C91.5753 31.6937 91.8674 33.129 91.8674 34.7869V36.1722C91.8674 37.8301 91.5808 39.2627 91.0078 40.47C90.4403 41.6717 89.6253 42.6008 88.5627 43.2573C87.5001 43.9082 86.2316 44.2337 84.7573 44.2337C83.3497 44.2337 82.1425 43.9889 81.1355 43.4993C80.1285 43.0041 79.3413 42.3198 78.7738 41.4464C78.2063 40.5674 77.8809 39.552 77.7974 38.4004ZM104.875 44L99.3843 36.7147H98.1492V44H94.5357V26.9091H98.1492V33.7354H98.8752L104.55 26.9091H109.048L102.38 34.837L109.357 44H104.875ZM125.916 35.4545C125.916 37.3183 125.562 38.9039 124.856 40.2113C124.155 41.5187 123.198 42.5173 121.985 43.2072C120.778 43.8915 119.42 44.2337 117.913 44.2337C116.394 44.2337 115.031 43.8887 113.824 43.1989C112.616 42.509 111.662 41.5104 110.961 40.2029C110.26 38.8955 109.91 37.3127 109.91 35.4545C109.91 33.5908 110.26 32.0052 110.961 30.6978C111.662 29.3904 112.616 28.3945 113.824 27.7102C115.031 27.0204 116.394 26.6754 117.913 26.6754C119.42 26.6754 120.778 27.0204 121.985 27.7102C123.198 28.3945 124.155 29.3904 124.856 30.6978C125.562 32.0052 125.916 33.5908 125.916 35.4545ZM122.252 35.4545C122.252 34.2473 122.071 33.2292 121.71 32.4002C121.354 31.5713 120.85 30.9426 120.199 30.5142C119.548 30.0858 118.786 29.8716 117.913 29.8716C117.039 29.8716 116.277 30.0858 115.626 30.5142C114.975 30.9426 114.469 31.5713 114.107 32.4002C113.751 33.2292 113.573 34.2473 113.573 35.4545C113.573 36.6618 113.751 37.6799 114.107 38.5089C114.469 39.3378 114.975 39.9665 115.626 40.3949C116.277 40.8233 117.039 41.0375 117.913 41.0375C118.786 41.0375 119.548 40.8233 120.199 40.3949C120.85 39.9665 121.354 39.3378 121.71 38.5089C122.071 37.6799 122.252 36.6618 122.252 35.4545ZM127.666 48.1225V41.1209H128.826C129.221 40.8372 129.583 40.4366 129.911 39.9192C130.239 39.3962 130.52 38.6758 130.754 37.7578C130.987 36.8343 131.154 35.627 131.254 34.136L131.739 26.9091H143.046V41.1209H144.916V48.1058H141.444V44H131.138V48.1225H127.666ZM132.999 41.1209H139.575V29.8883H134.993L134.726 34.136C134.654 35.2654 134.534 36.2668 134.367 37.1403C134.206 38.0137 134.008 38.7787 133.775 39.4352C133.547 40.0861 133.288 40.648 132.999 41.1209ZM162.818 35.4545C162.818 37.3183 162.465 38.9039 161.758 40.2113C161.057 41.5187 160.1 42.5173 158.887 43.2072C157.68 43.8915 156.323 44.2337 154.815 44.2337C153.296 44.2337 151.933 43.8887 150.726 43.1989C149.519 42.509 148.564 41.5104 147.863 40.2029C147.162 38.8955 146.812 37.3127 146.812 35.4545C146.812 33.5908 147.162 32.0052 147.863 30.6978C148.564 29.3904 149.519 28.3945 150.726 27.7102C151.933 27.0204 153.296 26.6754 154.815 26.6754C156.323 26.6754 157.68 27.0204 158.887 27.7102C160.1 28.3945 161.057 29.3904 161.758 30.6978C162.465 32.0052 162.818 33.5908 162.818 35.4545ZM159.154 35.4545C159.154 34.2473 158.974 33.2292 158.612 32.4002C158.256 31.5713 157.752 30.9426 157.102 30.5142C156.451 30.0858 155.688 29.8716 154.815 29.8716C153.942 29.8716 153.179 30.0858 152.528 30.5142C151.877 30.9426 151.371 31.5713 151.01 32.4002C150.654 33.2292 150.475 34.2473 150.475 35.4545C150.475 36.6618 150.654 37.6799 151.01 38.5089C151.371 39.3378 151.877 39.9665 152.528 40.3949C153.179 40.8233 153.942 41.0375 154.815 41.0375C155.688 41.0375 156.451 40.8233 157.102 40.3949C157.752 39.9665 158.256 39.3378 158.612 38.5089C158.974 37.6799 159.154 36.6618 159.154 35.4545ZM164.568 44V41.0959L165.052 41.0542C165.676 41.0041 166.179 40.7676 166.563 40.3448C166.947 39.9164 167.233 39.2349 167.422 38.3002C167.617 37.36 167.742 36.0971 167.798 34.5115L168.082 26.9091H179.682V44H176.168V29.8049H171.436L171.169 35.755C171.08 37.6688 170.852 39.2321 170.485 40.445C170.124 41.6578 169.545 42.5535 168.749 43.1321C167.959 43.7107 166.877 44 165.503 44H164.568ZM182.661 26.9091H186.266V37.6577H186.408L193.793 26.9091H196.956V44H193.343V33.2431H193.217L185.79 44H182.661V26.9091ZM199.941 44V26.9091H203.555V33.9608H210.89V26.9091H214.495V44H210.89V36.94H203.555V44H199.941ZM220.421 44H216.548L222.448 26.9091H227.105L232.997 44H229.125L224.843 30.8146H224.71L220.421 44ZM220.179 37.2821H229.325V40.1028H220.179V37.2821Z" fill="#474840"/>
<path d="M77.8808 61V59.8507L78.0724 59.8342C78.319 59.8144 78.5182 59.7208 78.6701 59.5535C78.822 59.3839 78.9354 59.1142 79.0103 58.7444C79.0874 58.3723 79.1369 57.8725 79.1589 57.245L79.2712 54.2364H83.8617V61H82.4714V55.3824H80.5988L80.4931 57.7371C80.4579 58.4945 80.3676 59.1131 80.2223 59.5931C80.0792 60.0731 79.8502 60.4276 79.5354 60.6565C79.2228 60.8855 78.7945 61 78.2507 61H77.8808ZM85.8829 62.9023C85.7046 62.9023 85.5372 62.888 85.3809 62.8593C85.2268 62.8329 85.0991 62.7988 84.9978 62.757L85.3149 61.7067C85.48 61.7574 85.6286 61.7849 85.7607 61.7893C85.895 61.7937 86.0106 61.7629 86.1075 61.6968C86.2066 61.6308 86.2869 61.5185 86.3486 61.36L86.4311 61.1453L84.6114 55.9273H86.091L87.1412 59.6526H87.194L88.2541 55.9273H89.7436L87.772 61.5482C87.6773 61.8212 87.5485 62.059 87.3856 62.2616C87.2249 62.4663 87.0212 62.6238 86.7746 62.7338C86.528 62.8461 86.2308 62.9023 85.8829 62.9023ZM94.7296 55.9273V61H93.3954V55.9273H94.7296ZM94.079 58.1532V59.2629C93.9711 59.3113 93.8368 59.3575 93.6761 59.4016C93.5154 59.4434 93.347 59.4775 93.1708 59.5039C92.9947 59.5304 92.8296 59.5436 92.6754 59.5436C91.9467 59.5436 91.3731 59.3939 90.9548 59.0944C90.5365 58.7928 90.3273 58.3117 90.3273 57.6512V55.9207H91.655V57.6512C91.655 57.8472 91.688 58.0024 91.754 58.1169C91.8223 58.2314 91.9302 58.3139 92.0777 58.3646C92.2274 58.413 92.4267 58.4372 92.6754 58.4372C92.9066 58.4372 93.1334 58.413 93.3558 58.3646C93.5781 58.3161 93.8192 58.2457 94.079 58.1532ZM95.822 55.9273H97.1661V59.8837H98.5961V55.9273H99.9402V59.8837H101.37V55.9273H102.714V61H95.822V55.9273ZM105.149 59.144L106.976 55.9273H108.363V61H107.022V57.7734L105.202 61H103.805V55.9273H105.149V59.144ZM111.802 61.0991C111.28 61.0991 110.831 60.9934 110.455 60.782C110.08 60.5685 109.792 60.2668 109.589 59.8771C109.387 59.4852 109.286 59.0218 109.286 58.4868C109.286 57.965 109.387 57.507 109.589 57.1129C109.792 56.7188 110.077 56.4116 110.445 56.1915C110.815 55.9713 111.248 55.8612 111.746 55.8612C112.081 55.8612 112.392 55.9152 112.681 56.023C112.971 56.1287 113.225 56.2884 113.44 56.5019C113.658 56.7155 113.828 56.9841 113.949 57.3077C114.07 57.6292 114.131 58.0057 114.131 58.4372V58.8236H109.847V57.9517H112.806C112.806 57.7492 112.762 57.5697 112.674 57.4134C112.586 57.2571 112.464 57.1349 112.307 57.0468C112.153 56.9566 111.974 56.9114 111.769 56.9114C111.556 56.9114 111.366 56.961 111.201 57.06C111.038 57.1569 110.911 57.2879 110.818 57.4531C110.726 57.616 110.678 57.7976 110.676 57.998V58.8269C110.676 59.0779 110.722 59.2948 110.815 59.4775C110.909 59.6603 111.043 59.8012 111.214 59.9002C111.386 59.9993 111.59 60.0489 111.825 60.0489C111.982 60.0489 112.125 60.0268 112.255 59.9828C112.385 59.9388 112.496 59.8727 112.588 59.7847C112.681 59.6966 112.751 59.5887 112.8 59.461L114.101 59.5469C114.035 59.8595 113.899 60.1325 113.695 60.3659C113.492 60.5971 113.23 60.7776 112.909 60.9075C112.589 61.0352 112.221 61.0991 111.802 61.0991ZM117.201 62.9023V55.9273H118.588V56.7793H118.651C118.713 56.6428 118.802 56.5041 118.918 56.3632C119.037 56.2201 119.191 56.1012 119.381 56.0065C119.572 55.9097 119.81 55.8612 120.094 55.8612C120.464 55.8612 120.805 55.9581 121.118 56.1518C121.431 56.3434 121.68 56.6329 121.868 57.0204C122.055 57.4057 122.148 57.889 122.148 58.4702C122.148 59.0361 122.057 59.5138 121.874 59.9036C121.694 60.2911 121.447 60.585 121.134 60.7853C120.824 60.9835 120.476 61.0826 120.091 61.0826C119.818 61.0826 119.586 61.0374 119.394 60.9472C119.205 60.8569 119.049 60.7435 118.928 60.607C118.807 60.4683 118.715 60.3285 118.651 60.1876H118.608V62.9023H117.201ZM118.578 58.4636C118.578 58.7653 118.62 59.0284 118.704 59.2529C118.787 59.4775 118.908 59.6526 119.067 59.7781C119.226 59.9013 119.418 59.963 119.645 59.963C119.874 59.963 120.068 59.9002 120.226 59.7748C120.385 59.6471 120.505 59.4709 120.586 59.2463C120.67 59.0196 120.712 58.7587 120.712 58.4636C120.712 58.1708 120.671 57.9132 120.589 57.6908C120.508 57.4685 120.388 57.2945 120.23 57.169C120.071 57.0435 119.876 56.9808 119.645 56.9808C119.416 56.9808 119.222 57.0413 119.064 57.1624C118.907 57.2835 118.787 57.4553 118.704 57.6776C118.62 57.9 118.578 58.162 118.578 58.4636ZM125.398 61.0991C124.876 61.0991 124.427 60.9934 124.051 60.782C123.676 60.5685 123.388 60.2668 123.185 59.8771C122.983 59.4852 122.881 59.0218 122.881 58.4868C122.881 57.965 122.983 57.507 123.185 57.1129C123.388 56.7188 123.673 56.4116 124.041 56.1915C124.411 55.9713 124.844 55.8612 125.342 55.8612C125.677 55.8612 125.988 55.9152 126.276 56.023C126.567 56.1287 126.82 56.2884 127.036 56.5019C127.254 56.7155 127.424 56.9841 127.545 57.3077C127.666 57.6292 127.726 58.0057 127.726 58.4372V58.8236H123.443V57.9517H126.402C126.402 57.7492 126.358 57.5697 126.27 57.4134C126.182 57.2571 126.06 57.1349 125.903 57.0468C125.749 56.9566 125.57 56.9114 125.365 56.9114C125.151 56.9114 124.962 56.961 124.797 57.06C124.634 57.1569 124.506 57.2879 124.414 57.4531C124.321 57.616 124.274 57.7976 124.272 57.998V58.8269C124.272 59.0779 124.318 59.2948 124.411 59.4775C124.505 59.6603 124.638 59.8012 124.81 59.9002C124.982 59.9993 125.186 60.0489 125.421 60.0489C125.577 60.0489 125.721 60.0268 125.85 59.9828C125.98 59.9388 126.092 59.8727 126.184 59.7847C126.276 59.6966 126.347 59.5887 126.395 59.461L127.697 59.5469C127.631 59.8595 127.495 60.1325 127.29 60.3659C127.088 60.5971 126.826 60.7776 126.504 60.9075C126.185 61.0352 125.816 61.0991 125.398 61.0991ZM128.644 55.9273H129.989V59.8837H131.419V55.9273H132.763V59.8837H134.193V55.9273H135.537V61H128.644V55.9273ZM138.939 61.0991C138.418 61.0991 137.968 60.9934 137.592 60.782C137.218 60.5685 136.929 60.2668 136.727 59.8771C136.524 59.4852 136.423 59.0218 136.423 58.4868C136.423 57.965 136.524 57.507 136.727 57.1129C136.929 56.7188 137.214 56.4116 137.582 56.1915C137.952 55.9713 138.386 55.8612 138.883 55.8612C139.218 55.8612 139.529 55.9152 139.818 56.023C140.108 56.1287 140.362 56.2884 140.577 56.5019C140.795 56.7155 140.965 56.9841 141.086 57.3077C141.207 57.6292 141.268 58.0057 141.268 58.4372V58.8236H136.984V57.9517H139.943C139.943 57.7492 139.899 57.5697 139.811 57.4134C139.723 57.2571 139.601 57.1349 139.445 57.0468C139.29 56.9566 139.111 56.9114 138.906 56.9114C138.693 56.9114 138.503 56.961 138.338 57.06C138.175 57.1569 138.048 57.2879 137.955 57.4531C137.863 57.616 137.815 57.7976 137.813 57.998V58.8269C137.813 59.0779 137.859 59.2948 137.952 59.4775C138.047 59.6603 138.18 59.8012 138.351 59.9002C138.523 59.9993 138.727 60.0489 138.962 60.0489C139.119 60.0489 139.262 60.0268 139.392 59.9828C139.522 59.9388 139.633 59.8727 139.725 59.7847C139.818 59.6966 139.888 59.5887 139.937 59.461L141.238 59.5469C141.172 59.8595 141.036 60.1325 140.832 60.3659C140.629 60.5971 140.367 60.7776 140.046 60.9075C139.726 61.0352 139.358 61.0991 138.939 61.0991ZM145.716 57.9022V59.0086H143.068V57.9022H145.716ZM143.53 55.9273V61H142.186V55.9273H143.53ZM146.598 55.9273V61H145.264V55.9273H146.598ZM149.034 59.144L150.86 55.9273H152.247V61H150.906V57.7734L149.086 61H147.689V55.9273H149.034V59.144ZM156.347 61V57.0303H155.396C155.138 57.0303 154.942 57.0898 154.808 57.2087C154.674 57.3276 154.608 57.4685 154.61 57.6314C154.608 57.7965 154.672 57.9363 154.801 58.0508C154.934 58.1631 155.127 58.2192 155.383 58.2192H156.816V59.1704H155.383C154.949 59.1704 154.574 59.1043 154.257 58.9722C153.94 58.8401 153.695 58.6563 153.523 58.4207C153.352 58.1829 153.267 57.9066 153.269 57.5918C153.267 57.2615 153.352 56.972 153.523 56.7232C153.695 56.4722 153.941 56.2773 154.26 56.1386C154.581 55.9977 154.96 55.9273 155.396 55.9273H157.658V61H156.347ZM153.124 61L154.534 58.358H155.878L154.471 61H153.124ZM160.507 62.4862V59.8837H160.897C161.009 59.8133 161.1 59.701 161.168 59.5469C161.238 59.3928 161.296 59.2111 161.34 59.002C161.386 58.7928 161.421 58.5671 161.445 58.3249C161.472 58.0805 161.495 57.8339 161.515 57.5852L161.647 55.9273H165.537V59.8837H166.323V62.4862H164.982V61H161.881V62.4862H160.507ZM162.297 59.8837H164.21V57.0105H162.842L162.79 57.5852C162.752 58.1268 162.698 58.5869 162.628 58.9656C162.557 59.3421 162.447 59.6482 162.297 59.8837ZM166.846 61L166.839 59.8837H167.008C167.127 59.8837 167.229 59.8551 167.315 59.7979C167.403 59.7384 167.476 59.6426 167.533 59.5105C167.59 59.3784 167.635 59.2034 167.668 58.9854C167.701 58.7653 167.723 58.4945 167.734 58.173L167.817 55.9273H171.674V61H170.333V57.0336H169.082L169.002 58.5825C168.983 59.0075 168.931 59.3729 168.847 59.679C168.766 59.985 168.652 60.236 168.507 60.432C168.362 60.6257 168.187 60.7688 167.982 60.8613C167.777 60.9538 167.539 61 167.269 61H166.846ZM175.737 61V57.0303H174.786C174.528 57.0303 174.333 57.0898 174.198 57.2087C174.064 57.3276 173.998 57.4685 174 57.6314C173.998 57.7965 174.062 57.9363 174.192 58.0508C174.324 58.1631 174.517 58.2192 174.773 58.2192H176.206V59.1704H174.773C174.339 59.1704 173.964 59.1043 173.647 58.9722C173.33 58.8401 173.085 58.6563 172.914 58.4207C172.742 58.1829 172.657 57.9066 172.659 57.5918C172.657 57.2615 172.742 56.972 172.914 56.7232C173.085 56.4722 173.331 56.2773 173.65 56.1386C173.971 55.9977 174.35 55.9273 174.786 55.9273H177.048V61H175.737ZM172.514 61L173.924 58.358H175.268L173.861 61H172.514ZM181.74 61.0958C181.417 61.0958 181.128 61.0396 180.875 60.9273C180.622 60.8129 180.422 60.6444 180.274 60.4221C180.129 60.1975 180.056 59.9179 180.056 59.5832C180.056 59.3014 180.108 59.0647 180.211 58.8732C180.315 58.6816 180.456 58.5275 180.634 58.4108C180.812 58.2941 181.015 58.206 181.242 58.1466C181.471 58.0871 181.711 58.0453 181.962 58.0211C182.257 57.9903 182.495 57.9616 182.675 57.9352C182.856 57.9066 182.987 57.8648 183.068 57.8097C183.15 57.7547 183.19 57.6732 183.19 57.5653V57.5455C183.19 57.3364 183.124 57.1745 182.992 57.06C182.862 56.9456 182.677 56.8883 182.437 56.8883C182.184 56.8883 181.983 56.9445 181.833 57.0567C181.683 57.1668 181.584 57.3055 181.536 57.4729L180.234 57.3672C180.301 57.0589 180.43 56.7925 180.624 56.568C180.818 56.3412 181.068 56.1673 181.374 56.0462C181.682 55.9229 182.039 55.8612 182.444 55.8612C182.726 55.8612 182.995 55.8942 183.253 55.9603C183.513 56.0263 183.743 56.1287 183.943 56.2674C184.146 56.4061 184.305 56.5845 184.422 56.8025C184.539 57.0182 184.597 57.2769 184.597 57.5786V61H183.263V60.2966H183.223C183.142 60.4551 183.033 60.5949 182.896 60.716C182.76 60.8349 182.596 60.9284 182.404 60.9967C182.213 61.0627 181.991 61.0958 181.74 61.0958ZM182.143 60.1248C182.35 60.1248 182.533 60.0841 182.692 60.0026C182.85 59.919 182.975 59.8067 183.065 59.6658C183.155 59.5249 183.2 59.3652 183.2 59.1869V58.6486C183.156 58.6772 183.096 58.7036 183.019 58.7278C182.944 58.7499 182.859 58.7708 182.764 58.7906C182.67 58.8082 182.575 58.8247 182.48 58.8401C182.386 58.8533 182.3 58.8654 182.223 58.8765C182.057 58.9007 181.913 58.9392 181.79 58.992C181.667 59.0449 181.571 59.1164 181.503 59.2067C181.434 59.2948 181.4 59.4049 181.4 59.537C181.4 59.7285 181.47 59.8749 181.608 59.9762C181.749 60.0753 181.928 60.1248 182.143 60.1248ZM189.163 55.9273V57.0336H187.056V61H185.689V55.9273H189.163ZM190.021 62.9023V55.9273H191.408V56.7793H191.471C191.532 56.6428 191.621 56.5041 191.738 56.3632C191.857 56.2201 192.011 56.1012 192.2 56.0065C192.392 55.9097 192.63 55.8612 192.914 55.8612C193.284 55.8612 193.625 55.9581 193.938 56.1518C194.25 56.3434 194.5 56.6329 194.687 57.0204C194.874 57.4057 194.968 57.889 194.968 58.4702C194.968 59.0361 194.877 59.5138 194.694 59.9036C194.513 60.2911 194.267 60.585 193.954 60.7853C193.644 60.9835 193.296 61.0826 192.911 61.0826C192.638 61.0826 192.405 61.0374 192.214 60.9472C192.024 60.8569 191.869 60.7435 191.748 60.607C191.627 60.4683 191.534 60.3285 191.471 60.1876H191.428V62.9023H190.021ZM191.398 58.4636C191.398 58.7653 191.44 59.0284 191.523 59.2529C191.607 59.4775 191.728 59.6526 191.887 59.7781C192.045 59.9013 192.238 59.963 192.465 59.963C192.694 59.963 192.887 59.9002 193.046 59.7748C193.204 59.6471 193.324 59.4709 193.406 59.2463C193.49 59.0196 193.531 58.7587 193.531 58.4636C193.531 58.1708 193.491 57.9132 193.409 57.6908C193.328 57.4685 193.208 57.2945 193.049 57.169C192.891 57.0435 192.696 56.9808 192.465 56.9808C192.236 56.9808 192.042 57.0413 191.883 57.1624C191.727 57.2835 191.607 57.4553 191.523 57.6776C191.44 57.9 191.398 58.162 191.398 58.4636ZM198.198 61.0991C197.685 61.0991 197.241 60.9901 196.867 60.7721C196.495 60.552 196.208 60.2459 196.005 59.854C195.802 59.4599 195.701 59.0031 195.701 58.4835C195.701 57.9594 195.802 57.5015 196.005 57.1096C196.208 56.7155 196.495 56.4094 196.867 56.1915C197.241 55.9713 197.685 55.8612 198.198 55.8612C198.711 55.8612 199.153 55.9713 199.526 56.1915C199.9 56.4094 200.188 56.7155 200.391 57.1096C200.593 57.5015 200.695 57.9594 200.695 58.4835C200.695 59.0031 200.593 59.4599 200.391 59.854C200.188 60.2459 199.9 60.552 199.526 60.7721C199.153 60.9901 198.711 61.0991 198.198 61.0991ZM198.205 60.0092C198.438 60.0092 198.633 59.9432 198.789 59.8111C198.945 59.6768 199.063 59.494 199.142 59.2629C199.224 59.0317 199.265 58.7686 199.265 58.4735C199.265 58.1785 199.224 57.9154 199.142 57.6842C199.063 57.4531 198.945 57.2703 198.789 57.136C198.633 57.0017 198.438 56.9346 198.205 56.9346C197.969 56.9346 197.771 57.0017 197.61 57.136C197.452 57.2703 197.332 57.4531 197.25 57.6842C197.171 57.9154 197.131 58.1785 197.131 58.4735C197.131 58.7686 197.171 59.0317 197.25 59.2629C197.332 59.494 197.452 59.6768 197.61 59.8111C197.771 59.9432 197.969 60.0092 198.205 60.0092ZM205.827 54.0646L206.256 54.9827C206.113 55.1016 205.955 55.1897 205.781 55.2469C205.607 55.302 205.399 55.3383 205.156 55.3559C204.916 55.3735 204.624 55.3857 204.278 55.3923C203.886 55.3967 203.567 55.4594 203.32 55.5805C203.074 55.7016 202.886 55.892 202.759 56.1518C202.631 56.4094 202.547 56.7463 202.508 57.1624H202.557C202.709 56.852 202.923 56.612 203.198 56.4425C203.475 56.2729 203.818 56.1882 204.225 56.1882C204.657 56.1882 205.034 56.2828 205.358 56.4722C205.684 56.6615 205.937 56.9335 206.117 57.2879C206.298 57.6424 206.388 58.0673 206.388 58.5627C206.388 59.0779 206.287 59.526 206.084 59.9069C205.884 60.2855 205.599 60.5795 205.229 60.7886C204.859 60.9956 204.419 61.0991 203.908 61.0991C203.395 61.0991 202.953 60.9912 202.58 60.7754C202.211 60.5597 201.924 60.2415 201.722 59.821C201.521 59.4005 201.421 58.8831 201.421 58.2688V57.8527C201.421 56.6307 201.659 55.7247 202.135 55.1347C202.61 54.5446 203.309 54.2452 204.232 54.2364C204.483 54.232 204.709 54.2309 204.912 54.2331C205.115 54.2353 205.292 54.2254 205.444 54.2033C205.598 54.1813 205.726 54.1351 205.827 54.0646ZM203.915 60.0092C204.13 60.0092 204.315 59.9531 204.469 59.8408C204.626 59.7285 204.746 59.5678 204.829 59.3586C204.915 59.1495 204.958 58.8996 204.958 58.6089C204.958 58.3205 204.915 58.0761 204.829 57.8758C204.746 57.6732 204.626 57.5191 204.469 57.4134C204.313 57.3077 204.126 57.2549 203.908 57.2549C203.745 57.2549 203.599 57.2846 203.469 57.3441C203.339 57.4035 203.228 57.4916 203.135 57.6083C203.045 57.7228 202.975 57.8648 202.924 58.0343C202.875 58.2016 202.851 58.3932 202.851 58.6089C202.851 59.0427 202.945 59.385 203.132 59.636C203.321 59.8848 203.582 60.0092 203.915 60.0092ZM208.666 59.144L210.493 55.9273H211.88V61H210.539V57.7734L208.719 61H207.322V55.9273H208.666V59.144ZM212.747 59.5634H214.11C214.117 59.7307 214.192 59.8628 214.335 59.9597C214.478 60.0566 214.663 60.105 214.89 60.105C215.119 60.105 215.311 60.0522 215.468 59.9465C215.624 59.8386 215.702 59.6845 215.702 59.4841C215.702 59.3608 215.671 59.254 215.61 59.1638C215.548 59.0713 215.462 58.9987 215.352 58.9458C215.242 58.893 215.114 58.8665 214.969 58.8665H214.239V57.9451H214.969C215.187 57.9451 215.354 57.8945 215.471 57.7932C215.59 57.6919 215.649 57.5653 215.649 57.4134C215.649 57.2417 215.588 57.1041 215.465 57.0006C215.343 56.8949 215.179 56.8421 214.972 56.8421C214.763 56.8421 214.589 56.8894 214.451 56.9841C214.314 57.0766 214.244 57.1977 214.239 57.3474H212.882C212.886 57.0435 212.978 56.7804 213.156 56.5581C213.337 56.3357 213.579 56.164 213.883 56.0429C214.189 55.9218 214.531 55.8612 214.91 55.8612C215.324 55.8612 215.68 55.9196 215.98 56.0363C216.281 56.1507 216.513 56.3148 216.673 56.5283C216.836 56.7419 216.918 56.9962 216.918 57.2912C216.918 57.5598 216.83 57.7844 216.653 57.965C216.477 58.1455 216.231 58.2743 215.914 58.3513V58.4042C216.123 58.4174 216.312 58.4735 216.482 58.5726C216.651 58.6717 216.787 58.8082 216.888 58.9821C216.989 59.1539 217.04 59.3575 217.04 59.5931C217.04 59.908 216.947 60.1777 216.762 60.4022C216.58 60.6268 216.326 60.7996 216.003 60.9207C215.681 61.0396 215.313 61.0991 214.896 61.0991C214.491 61.0991 214.128 61.0407 213.807 60.924C213.487 60.8051 213.233 60.6312 213.044 60.4022C212.857 60.1733 212.758 59.8936 212.747 59.5634ZM221.433 57.9022V59.0086H218.784V57.9022H221.433ZM219.247 55.9273V61H217.903V55.9273H219.247ZM222.315 55.9273V61H220.981V55.9273H222.315ZM225.718 61.0991C225.196 61.0991 224.747 60.9934 224.371 60.782C223.996 60.5685 223.708 60.2668 223.505 59.8771C223.303 59.4852 223.202 59.0218 223.202 58.4868C223.202 57.965 223.303 57.507 223.505 57.1129C223.708 56.7188 223.993 56.4116 224.361 56.1915C224.731 55.9713 225.164 55.8612 225.662 55.8612C225.997 55.8612 226.308 55.9152 226.597 56.023C226.887 56.1287 227.14 56.2884 227.356 56.5019C227.574 56.7155 227.744 56.9841 227.865 57.3077C227.986 57.6292 228.046 58.0057 228.046 58.4372V58.8236H223.763V57.9517H226.722C226.722 57.7492 226.678 57.5697 226.59 57.4134C226.502 57.2571 226.38 57.1349 226.223 57.0468C226.069 56.9566 225.89 56.9114 225.685 56.9114C225.472 56.9114 225.282 56.961 225.117 57.06C224.954 57.1569 224.826 57.2879 224.734 57.4531C224.641 57.616 224.594 57.7976 224.592 57.998V58.8269C224.592 59.0779 224.638 59.2948 224.731 59.4775C224.825 59.6603 224.959 59.8012 225.13 59.9002C225.302 59.9993 225.506 60.0489 225.741 60.0489C225.898 60.0489 226.041 60.0268 226.171 59.9828C226.3 59.9388 226.412 59.8727 226.504 59.7847C226.597 59.6966 226.667 59.5887 226.715 59.461L228.017 59.5469C227.951 59.8595 227.815 60.1325 227.61 60.3659C227.408 60.5971 227.146 60.7776 226.824 60.9075C226.505 61.0352 226.136 61.0991 225.718 61.0991ZM231.257 61.0991C230.737 61.0991 230.29 60.989 229.916 60.7688C229.544 60.5464 229.257 60.2382 229.057 59.8441C228.859 59.45 228.76 58.9964 228.76 58.4835C228.76 57.9638 228.86 57.5081 229.06 57.1162C229.263 56.7221 229.55 56.4149 229.922 56.1948C230.294 55.9724 230.737 55.8612 231.25 55.8612C231.692 55.8612 232.08 55.9416 232.412 56.1023C232.745 56.263 233.008 56.4887 233.202 56.7793C233.395 57.07 233.502 57.4112 233.522 57.8031H232.194C232.157 57.5499 232.058 57.3463 231.897 57.1922C231.739 57.0358 231.531 56.9577 231.273 56.9577C231.055 56.9577 230.865 57.0171 230.702 57.136C230.541 57.2527 230.415 57.4233 230.325 57.6479C230.235 57.8725 230.19 58.1444 230.19 58.4636C230.19 58.7873 230.234 59.0625 230.322 59.2893C230.412 59.5161 230.539 59.6889 230.702 59.8078C230.865 59.9267 231.055 59.9861 231.273 59.9861C231.434 59.9861 231.578 59.9531 231.706 59.887C231.836 59.821 231.942 59.7252 232.026 59.5997C232.112 59.472 232.168 59.319 232.194 59.1407H233.522C233.5 59.5282 233.394 59.8694 233.205 60.1645C233.018 60.4573 232.759 60.6863 232.429 60.8514C232.099 61.0165 231.708 61.0991 231.257 61.0991ZM235.869 61.0958C235.546 61.0958 235.257 61.0396 235.004 60.9273C234.751 60.8129 234.551 60.6444 234.403 60.4221C234.258 60.1975 234.185 59.9179 234.185 59.5832C234.185 59.3014 234.237 59.0647 234.34 58.8732C234.444 58.6816 234.585 58.5275 234.763 58.4108C234.941 58.2941 235.144 58.206 235.371 58.1466C235.6 58.0871 235.84 58.0453 236.091 58.0211C236.386 57.9903 236.623 57.9616 236.804 57.9352C236.985 57.9066 237.116 57.8648 237.197 57.8097C237.278 57.7547 237.319 57.6732 237.319 57.5653V57.5455C237.319 57.3364 237.253 57.1745 237.121 57.06C236.991 56.9456 236.806 56.8883 236.566 56.8883C236.313 56.8883 236.112 56.9445 235.962 57.0567C235.812 57.1668 235.713 57.3055 235.665 57.4729L234.363 57.3672C234.429 57.0589 234.559 56.7925 234.753 56.568C234.947 56.3412 235.197 56.1673 235.503 56.0462C235.811 55.9229 236.168 55.8612 236.573 55.8612C236.855 55.8612 237.124 55.8942 237.382 55.9603C237.642 56.0263 237.872 56.1287 238.072 56.2674C238.275 56.4061 238.434 56.5845 238.551 56.8025C238.668 57.0182 238.726 57.2769 238.726 57.5786V61H237.392V60.2966H237.352C237.271 60.4551 237.162 60.5949 237.025 60.716C236.889 60.8349 236.725 60.9284 236.533 60.9967C236.342 61.0627 236.12 61.0958 235.869 61.0958ZM236.272 60.1248C236.479 60.1248 236.662 60.0841 236.82 60.0026C236.979 59.919 237.103 59.8067 237.194 59.6658C237.284 59.5249 237.329 59.3652 237.329 59.1869V58.6486C237.285 58.6772 237.225 58.7036 237.147 58.7278C237.073 58.7499 236.988 58.7708 236.893 58.7906C236.798 58.8082 236.704 58.8247 236.609 58.8401C236.514 58.8533 236.429 58.8654 236.352 58.8765C236.186 58.9007 236.042 58.9392 235.919 58.992C235.796 59.0449 235.7 59.1164 235.632 59.2067C235.563 59.2948 235.529 59.4049 235.529 59.537C235.529 59.7285 235.599 59.8749 235.737 59.9762C235.878 60.0753 236.057 60.1248 236.272 60.1248Z" fill="#474840"/>
</svg>
